<svg class="tci-uet-shap" xmlns="http://www.w3.org/2000/svg" viewBox="0 0 1000 247" preserveAspectRatio="none">
	<defs>
		<style>.a{opacity:.25;isolation:isolate}</style>
	</defs>
	<path class="tci-uet-shape-fill" d="M0 200.92v.26l.75-.77-.75.51z"/>
	<path d="M279.29 208.39c0-4.49 74.71-29.88 74.71-29.88l61.71 61.26L550 153.1l134.14 88.17L874.28 50 1000 178.51v-.33L874.28 0 684.14 191.27 550 103.1l-134.29 86.67L354 128.51s-74.71 25.39-74.71 29.88S144.23 52.08 144.23 52.08L.75 200.41l143.48-98.33s135.06 110.8 135.06 106.31z"
		  class="tci-uet-shape-fill a"/>
	<path class="tci-uet-shape-fill"
		  d="M1000 178.51L874.28 50 684.14 241.27 550 153.1l-134.29 86.67L354 178.51s-74.71 25.39-74.71 29.88-135.06-106.31-135.06-106.31L.75 200.41l-.75.77V247h1000z"/>
	<path d="M1000 178.51L874.28 50 684.14 241.27 550 153.1l-134.29 86.67L354 178.51s-74.71 25.39-74.71 29.88-135.06-106.31-135.06-106.31L.75 200.41l-.75.77V247h1000z"
		  class="tci-uet-shape-fill a"/>
</svg>