<svg class="tci-uet-shap" xmlns="http://www.w3.org/2000/svg" viewBox="0 0 4200 512"
	 preserveAspectRatio="xMidYMin slice">
	<path class="tci-uet-shape-fill" style="isolation:isolate"
		  d="M200 500l100-100 100 100 100-100 100 100 100-100 100 100 100-100 100 100 100-100 100 100 100-100 100 100 100-100 100 100 100-100 100 100 100-100 100 100 100-100 100 100 100-100 100 100 100-100 100 100 100-100 100 100 100-100 100 100 100-100 100 100 100-100 100 100 100-100 100 100 100-100 100 100 100-100 100 100 100-100 100 100V400l-100-100-100 100-100-100-100 100-100-100-100 100-100-100-100 100-100-100-100 100-100-100-100 100-100-100-100 100-100-100-100 100-100-100-100 100-100-100-100 100-100-100-100 100-100-100-100 100-100-100-100 100-100-100-100 100-100-100-100 100-100-100-100 100-100-100-100 100-100-100-100 100-100-100-100 100-100-100-100 100-100-100L0 400v100l100-100z"
		  opacity=".75"/>
	<path class="tci-uet-shape-fill"
		  d="M4200 500l-100-100-100 100-100-100-100 100-100-100-100 100-100-100-100 100-100-100-100 100-100-100-100 100-100-100-100 100-100-100-100 100-100-100-100 100-100-100-100 100-100-100-100 100-100-100-100 100-100-100-100 100-100-100-100 100-100-100-100 100-100-100-100 100-100-100-100 100-100-100-100 100-100-100-100 100-100-100-100 100-100-100L0 500v12h4200z"/>
	<path class="tci-uet-shape-fill" style="isolation:isolate"
		  d="M200 400l100-100 100 100 100-100 100 100 100-100 100 100 100-100 100 100 100-100 100 100 100-100 100 100 100-100 100 100 100-100 100 100 100-100 100 100 100-100 100 100 100-100 100 100 100-100 100 100 100-100 100 100 100-100 100 100 100-100 100 100 100-100 100 100 100-100 100 100 100-100 100 100 100-100 100 100 100-100 100 100V300l-100-100-100 100-100-100-100 100-100-100-100 100-100-100-100 100-100-100-100 100-100-100-100 100-100-100-100 100-100-100-100 100-100-100-100 100-100-100-100 100-100-100-100 100-100-100-100 100-100-100-100 100-100-100-100 100-100-100-100 100-100-100-100 100-100-100-100 100-100-100-100 100-100-100-100 100-100-100-100 100-100-100L0 300v100l100-100z"
		  opacity=".5"/>
	<path class="tci-uet-shape-fill" style="isolation:isolate"
		  d="M200 300l100-100 100 100 100-100 100 100 100-100 100 100 100-100 100 100 100-100 100 100 100-100 100 100 100-100 100 100 100-100 100 100 100-100 100 100 100-100 100 100 100-100 100 100 100-100 100 100 100-100 100 100 100-100 100 100 100-100 100 100 100-100 100 100 100-100 100 100 100-100 100 100 100-100 100 100 100-100 100 100V200l-100-100-100 100-100-100-100 100-100-100-100 100-100-100-100 100-100-100-100 100-100-100-100 100-100-100-100 100-100-100-100 100-100-100-100 100-100-100-100 100-100-100-100 100-100-100-100 100-100-100-100 100-100-100-100 100-100-100-100 100-100-100-100 100-100-100-100 100-100-100-100 100-100-100-100 100-100-100-100 100-100-100L0 200v100l100-100z"
		  opacity=".25"/>
	<path class="tci-uet-shape-fill" style="isolation:isolate"
		  d="M200 200l100-100 100 100 100-100 100 100 100-100 100 100 100-100 100 100 100-100 100 100 100-100 100 100 100-100 100 100 100-100 100 100 100-100 100 100 100-100 100 100 100-100 100 100 100-100 100 100 100-100 100 100 100-100 100 100 100-100 100 100 100-100 100 100 100-100 100 100 100-100 100 100 100-100 100 100 100-100 100 100V100L4100 0l-100 100L3900 0l-100 100L3700 0l-100 100L3500 0l-100 100L3300 0l-100 100L3100 0l-100 100L2900 0l-100 100L2700 0l-100 100L2500 0l-100 100L2300 0l-100 100L2100 0l-100 100L1900 0l-100 100L1700 0l-100 100L1500 0l-100 100L1300 0l-100 100L1100 0l-100 100L900 0 800 100 700 0 600 100 500 0 400 100 300 0 200 100 100 0 0 100v100l100-100z"
		  opacity=".12"/>
</svg>