<svg class="tci-uet-shap" xmlns="http://www.w3.org/2000/svg" viewBox="0 0 1009.72 71.42" preserveAspectRatio="xMidYMin slice">
	<path class="tci-uet-shape-fill" d="M248.27 37.16a5.07 5.07 0 0 0-7.17 0l-34.26 34.26h14.35l27.08-27.09a5.07 5.07 0 0 0 0-7.17zM301.78 19.32a5.07 5.07 0 0 0-7.17 0l-52.1 52.1h14.35l44.92-44.92a5.08 5.08 0 0 0 0-7.18zM295 8.26a5.07 5.07 0 0 0-7.17 0l-63.15 63.16H239l56-56a5.06 5.06 0 0 0 0-7.16zM259.33 8.26a5.07 5.07 0 0 0-7.17 0L189 71.42h14.35l56-56a5.09 5.09 0 0 0-.02-7.16zM212.6 19.32a5.07 5.07 0 0 0-7.17 0l-52.1 52.1h14.35L212.6 26.5a5.08 5.08 0 0 0 0-7.18zM205.82 43.94a5.07 5.07 0 0 0-7.17 0l-27.48 27.48h14.35l20.3-20.31a5.07 5.07 0 0 0 0-7.17zM34.25 19.34a5.07 5.07 0 0 0-7.17 0L0 46.38v14.35L34.23 26.5a5.07 5.07 0 0 0 .02-7.16zM277.22 61.82h-.05a5.08 5.08 0 0 0-7.18 0l-9.64 9.65h14.35l2.47-2.47a5.07 5.07 0 0 0 .05-7.18zM330.68 43.94a5.08 5.08 0 0 0-7.18 0L296 71.42h14.35l20.31-20.31a5.07 5.07 0 0 0 .02-7.17zM295.07 61.84l-.07-.07a5.07 5.07 0 0 0-7.17 0l-9.64 9.65h14.35L295 69a5.06 5.06 0 0 0 .07-7.16zM141.25 19.32a5.07 5.07 0 0 0-7.17 0L82 71.42h14.33l44.92-44.92a5.08 5.08 0 0 0 0-7.18zM52.07 37.16a5.07 5.07 0 0 0-7.17 0L10.64 71.42H25l27.07-27.09a5.07 5.07 0 0 0 0-7.17zM170.15 43.94a5.08 5.08 0 0 0-7.18 0L135.5 71.42h14.34l20.31-20.31a5.07 5.07 0 0 0 0-7.17zM87.76 19.34a5.07 5.07 0 0 0-7.17 0L28.48 71.42h14.34L87.74 26.5a5.07 5.07 0 0 0 .02-7.16zM69.91 1.49a5.07 5.07 0 0 0-7.16 0L0 64.22v7.2h7.15L69.91 8.66a5.07 5.07 0 0 0 0-7.17zM123.42 1.49a5.07 5.07 0 0 0-7.16 0L46.31 71.42h14.35l62.76-62.76a5.07 5.07 0 0 0 0-7.17zM176.93 1.49a5.07 5.07 0 0 0-7.16 0L99.82 71.42h14.35l62.76-62.76a5.07 5.07 0 0 0 0-7.17zM134.48 8.26a5.08 5.08 0 0 0-7.18 0L64.15 71.42H78.5l56-56a5.09 5.09 0 0 0-.02-7.16zM170.15 26.1a5.08 5.08 0 0 0-7.18 0l-45.31 45.32H132l38.14-38.15a5.07 5.07 0 0 0 .01-7.17zM473.48 8.26a5.08 5.08 0 0 0-7.18 0l-63.15 63.16h14.35l56-56a5.09 5.09 0 0 0-.02-7.16zM509.15 43.94a5.08 5.08 0 0 0-7.18 0L474.5 71.42h14.34l20.31-20.31a5.07 5.07 0 0 0 0-7.17zM509.15 26.1a5.08 5.08 0 0 0-7.18 0l-45.31 45.32H471l38.14-38.15a5.07 5.07 0 0 0 .01-7.17zM515.93 1.49a5.07 5.07 0 0 0-7.16 0l-69.95 69.93h14.35l62.76-62.76a5.07 5.07 0 0 0 0-7.17zM462.42 1.49a5.07 5.07 0 0 0-7.16 0l-69.95 69.93h14.35l62.76-62.76a5.07 5.07 0 0 0 0-7.17zM339 60.73l34.23-34.23a5.07 5.07 0 0 0 0-7.16 5.07 5.07 0 0 0-7.17 0l-24.17 24.15a4.7 4.7 0 0 0-.55.45l-27.48 27.48h14.35L339 60.62zM426.76 19.34a5.07 5.07 0 0 0-7.17 0l-52.09 52.1h14.34l44.9-44.94a5.07 5.07 0 0 0 .02-7.16zM408.91 1.49a5.07 5.07 0 0 0-7.16 0l-59.81 59.79a4.59 4.59 0 0 0-.6.49l-9.64 9.65h14.45l62.76-62.76a5.07 5.07 0 0 0 0-7.17zM391.07 37.16a5.07 5.07 0 0 0-7.17 0l-34.26 34.26H364l27.08-27.09a5.07 5.07 0 0 0-.01-7.17zM480.25 19.32a5.07 5.07 0 0 0-7.17 0L421 71.42h14.34l44.91-44.92a5.08 5.08 0 0 0 0-7.18zM936.9 8.26a5.08 5.08 0 0 0-7.18 0l-63.15 63.16h14.35l56-56a5.09 5.09 0 0 0-.02-7.16zM890.17 19.32a5.08 5.08 0 0 0-7.18 0l-52.09 52.1h14.35l44.92-44.92a5.08 5.08 0 0 0 0-7.18zM883.39 43.94a5.08 5.08 0 0 0-7.18 0l-27.48 27.48h14.35l20.31-20.31a5.07 5.07 0 0 0 0-7.17zM847.74 44a5.07 5.07 0 0 0-7.17 0l-27.51 27.42h14.35l20.3-20.31a5.05 5.05 0 0 0 .03-7.11zM818.82 19.32a5.08 5.08 0 0 0-7.18 0l-52.09 52.1h14.35l44.92-44.92a5.08 5.08 0 0 0 0-7.18zM812 8.26a5.07 5.07 0 0 0-7.17 0l-63.12 63.16h14.35l56-56a5.09 5.09 0 0 0-.06-7.16zM854.49 1.49a5.05 5.05 0 0 0-7.14 0l-69.96 69.93h14.35l62.75-62.76a5.07 5.07 0 0 0 0-7.17zM847.74 26.13a5.07 5.07 0 0 0-7.17 0l-45.35 45.29h14.35l38.14-38.15a5.05 5.05 0 0 0 .03-7.14zM972.62 61.82a5.07 5.07 0 0 0-7.17 0l-9.65 9.65h14.3l2.47-2.47a5.07 5.07 0 0 0 .05-7.18zM1008.24 43.94a5.07 5.07 0 0 0-7.17 0l-27.48 27.48h14.35l20.3-20.31a5.07 5.07 0 0 0 0-7.17zM551.6 19.32a5.07 5.07 0 0 0-7.17 0l-52.1 52.1h14.35L551.6 26.5a5.08 5.08 0 0 0 0-7.18zM972.57 8.26a5.07 5.07 0 0 0-7.17 0l-63.16 63.16h14.35l56-56a5.09 5.09 0 0 0-.02-7.16zM979.35 19.32a5.08 5.08 0 0 0-7.18 0l-52.09 52.1h14.35l44.92-44.92a5.08 5.08 0 0 0 0-7.18zM925.84 37.16a5.08 5.08 0 0 0-7.18 0l-34.25 34.26h14.34l27.09-27.09a5.07 5.07 0 0 0 0-7.17zM954.78 61.82a5.07 5.07 0 0 0-7.17 0l-9.64 9.65h14.34l2.42-2.47a5.07 5.07 0 0 0 .05-7.18zM634 8.26a5.07 5.07 0 0 0-7.17 0l-63.15 63.16H578l56-56a5.06 5.06 0 0 0 0-7.16zM587.27 37.16a5.07 5.07 0 0 0-7.17 0l-34.26 34.26h14.35l27.08-27.09a5.07 5.07 0 0 0 0-7.17zM801 1.49a5.05 5.05 0 0 0-7.14 0l-70 69.93h14.35L801 8.66a5.07 5.07 0 0 0 0-7.17zM598.33 8.26a5.07 5.07 0 0 0-7.17 0L528 71.42h14.35l56-56a5.09 5.09 0 0 0-.02-7.16zM616.22 61.82h-.05a5.08 5.08 0 0 0-7.18 0l-9.64 9.65h14.35l2.47-2.47a5.07 5.07 0 0 0 .05-7.18zM544.82 43.94a5.07 5.07 0 0 0-7.17 0l-27.48 27.48h14.35l20.3-20.31a5.07 5.07 0 0 0 0-7.17zM640.78 19.32a5.07 5.07 0 0 0-7.17 0l-52.1 52.1h14.35l44.92-44.92a5.08 5.08 0 0 0 0-7.18zM634.07 61.84l-.07-.07a5.07 5.07 0 0 0-7.17 0l-9.64 9.65h14.35L634 69a5.06 5.06 0 0 0 .07-7.16zM687.58 61.84l-.07-.07a5.07 5.07 0 0 0-7.17 0l-9.64 9.65h14.35l2.46-2.42a5.06 5.06 0 0 0 .07-7.16zM765.31 19.32a5.07 5.07 0 0 0-7.17 0L706 71.42h14.35l45-44.92a5.08 5.08 0 0 0-.04-7.18zM729.64 37.16a5.08 5.08 0 0 0-7.18 0L688.2 71.42h14.35l27.09-27.09a5.07 5.07 0 0 0 0-7.17zM669.68 43.94a5.08 5.08 0 0 0-7.18 0L635 71.42h14.35l20.31-20.31a5.07 5.07 0 0 0 .02-7.17zM687.54 44a5.07 5.07 0 0 0-7.17 0l-27.51 27.42h14.35l20.3-20.31a5.05 5.05 0 0 0 .03-7.11z"/>
</svg>