<svg class="tci-uet-shap" xmlns="http://www.w3.org/2000/svg" viewBox="0 0 1000 99.387"
	 preserveAspectRatio="xMidYMin slice">
	<defs>
		<style>.a{opacity:.12}.b{opacity:.25}.c{opacity:.5}.d{opacity:.75}</style>
	</defs>
	<g class="tci-uet-shape-fill a">
		<path d="M983.871 32.258A16.129 16.129 0 0 1 1000 16.129a16.129 16.129 0 0 0-32.258 0 16.129 16.129 0 0 1 16.129 16.129z"/>
		<path d="M951.613 32.258a16.129 16.129 0 0 1 16.129-16.129 16.129 16.129 0 1 0-32.258 0 16.129 16.129 0 0 1 16.129 16.129z"/>
	</g>
	<path d="M919.355 32.258a16.129 16.129 0 0 1 16.129-16.129 16.129 16.129 0 1 0-32.258 0 16.129 16.129 0 0 1 16.129 16.129z"
		  class="tci-uet-shape-fill a"/>
	<path d="M887.1 32.258a16.129 16.129 0 0 1 16.129-16.129 16.129 16.129 0 1 0-32.258 0A16.129 16.129 0 0 1 887.1 32.258zM854.839 32.258a16.129 16.129 0 0 1 16.129-16.129 16.129 16.129 0 1 0-32.258 0 16.129 16.129 0 0 1 16.129 16.129zM822.581 32.258a16.129 16.129 0 0 1 16.129-16.129 16.129 16.129 0 0 0-32.258 0 16.129 16.129 0 0 1 16.129 16.129zM790.323 32.258a16.129 16.129 0 0 1 16.129-16.129 16.129 16.129 0 0 0-32.258 0 16.129 16.129 0 0 1 16.129 16.129z"
		  class="tci-uet-shape-fill a"/>
	<path d="M758.065 32.258a16.129 16.129 0 0 1 16.129-16.129 16.13 16.13 0 0 0-32.259 0 16.13 16.13 0 0 1 16.13 16.129zM725.806 32.258a16.129 16.129 0 0 1 16.129-16.129 16.129 16.129 0 1 0-32.258 0 16.129 16.129 0 0 1 16.129 16.129zM693.548 32.258a16.129 16.129 0 0 1 16.129-16.129 16.129 16.129 0 1 0-32.258 0 16.129 16.129 0 0 1 16.129 16.129zM661.29 32.258a16.129 16.129 0 0 1 16.129-16.129 16.129 16.129 0 1 0-32.258 0 16.129 16.129 0 0 1 16.129 16.129z"
		  class="tci-uet-shape-fill a"/>
	<path d="M629.032 32.258a16.129 16.129 0 0 1 16.129-16.129 16.129 16.129 0 1 0-32.258 0 16.129 16.129 0 0 1 16.129 16.129zM596.774 32.258A16.129 16.129 0 0 1 612.9 16.129a16.129 16.129 0 0 0-32.258 0 16.129 16.129 0 0 1 16.132 16.129z"
		  class="tci-uet-shape-fill a"/>
	<path d="M564.516 32.258a16.129 16.129 0 0 1 16.129-16.129 16.129 16.129 0 0 0-32.258 0 16.129 16.129 0 0 1 16.129 16.129z"
		  class="tci-uet-shape-fill a"/>
	<path d="M532.258 32.258a16.129 16.129 0 0 1 16.129-16.129 16.129 16.129 0 1 0-32.258 0 16.129 16.129 0 0 1 16.129 16.129zM500 32.258a16.129 16.129 0 0 1 16.129-16.129 16.129 16.129 0 0 0-32.258 0A16.129 16.129 0 0 1 500 32.258z"
		  class="tci-uet-shape-fill a"/>
	<path d="M467.742 32.258a16.129 16.129 0 0 1 16.129-16.129 16.129 16.129 0 1 0-32.258 0 16.129 16.129 0 0 1 16.129 16.129zM435.484 32.258a16.129 16.129 0 0 1 16.129-16.129 16.129 16.129 0 0 0-32.258 0 16.129 16.129 0 0 1 16.129 16.129zM403.226 32.258a16.129 16.129 0 0 1 16.129-16.129 16.129 16.129 0 0 0-32.258 0 16.129 16.129 0 0 1 16.129 16.129z"
		  class="tci-uet-shape-fill a"/>
	<path d="M370.968 32.258A16.129 16.129 0 0 1 387.1 16.129a16.129 16.129 0 1 0-32.258 0 16.129 16.129 0 0 1 16.126 16.129zM338.71 32.258a16.129 16.129 0 0 1 16.129-16.129 16.129 16.129 0 0 0-32.258 0 16.129 16.129 0 0 1 16.129 16.129zM306.452 32.258a16.129 16.129 0 0 1 16.129-16.129 16.129 16.129 0 0 0-32.258 0 16.129 16.129 0 0 1 16.129 16.129z"
		  class="tci-uet-shape-fill a"/>
	<path d="M274.194 32.258a16.129 16.129 0 0 1 16.129-16.129 16.129 16.129 0 1 0-32.258 0 16.129 16.129 0 0 1 16.129 16.129zM241.935 32.258a16.13 16.13 0 0 1 16.13-16.129 16.13 16.13 0 0 0-32.259 0 16.129 16.129 0 0 1 16.129 16.129zM209.677 32.258a16.129 16.129 0 0 1 16.129-16.129 16.129 16.129 0 0 0-32.258 0 16.129 16.129 0 0 1 16.129 16.129z"
		  class="tci-uet-shape-fill a"/>
	<path d="M177.419 32.258a16.129 16.129 0 0 1 16.129-16.129 16.129 16.129 0 1 0-32.258 0 16.129 16.129 0 0 1 16.129 16.129zM145.161 32.258a16.129 16.129 0 0 1 16.129-16.129 16.129 16.129 0 0 0-32.258 0 16.129 16.129 0 0 1 16.129 16.129zM112.9 32.258a16.129 16.129 0 0 1 16.129-16.129 16.129 16.129 0 0 0-32.258 0A16.129 16.129 0 0 1 112.9 32.258z"
		  class="tci-uet-shape-fill a"/>
	<path d="M80.645 32.258a16.129 16.129 0 0 1 16.129-16.129 16.129 16.129 0 0 0-32.258 0 16.129 16.129 0 0 1 16.129 16.129z"
		  class="tci-uet-shape-fill a"/>
	<g class="tci-uet-shape-fill a">
		<path d="M16.129 32.258a16.129 16.129 0 0 1 16.129-16.129 16.129 16.129 0 0 0-32.258 0 16.129 16.129 0 0 1 16.129 16.129zM48.387 32.258a16.129 16.129 0 0 1 16.129-16.129 16.129 16.129 0 0 0-32.258 0 16.129 16.129 0 0 1 16.129 16.129z"/>
	</g>
	<path d="M951.613 32.258a16.129 16.129 0 0 1 16.129 16.129 16.129 16.129 0 0 1 16.129-16.129 16.129 16.129 0 0 0-32.258 0zM919.355 32.258a16.129 16.129 0 0 1 16.129 16.129 16.129 16.129 0 0 1 16.129-16.129 16.129 16.129 0 0 0-32.258 0z"
		  class="tci-uet-shape-fill b"/>
	<path d="M887.1 32.258a16.129 16.129 0 0 1 16.129 16.129 16.129 16.129 0 0 1 16.129-16.129 16.129 16.129 0 0 0-32.258 0zM854.839 32.258a16.129 16.129 0 0 1 16.129 16.129A16.129 16.129 0 0 1 887.1 32.258a16.129 16.129 0 0 0-32.258 0zM822.581 32.258a16.129 16.129 0 0 1 16.129 16.129 16.129 16.129 0 0 1 16.129-16.129 16.129 16.129 0 1 0-32.258 0zM790.323 32.258a16.129 16.129 0 0 1 16.129 16.129 16.129 16.129 0 0 1 16.129-16.129 16.129 16.129 0 1 0-32.258 0z"
		  class="tci-uet-shape-fill b"/>
	<path d="M758.065 32.258a16.129 16.129 0 0 1 16.129 16.129 16.129 16.129 0 0 1 16.129-16.129 16.129 16.129 0 0 0-32.258 0zM725.806 32.258a16.129 16.129 0 0 1 16.129 16.129 16.13 16.13 0 0 1 16.13-16.129 16.13 16.13 0 0 0-32.259 0zM693.548 32.258a16.129 16.129 0 0 1 16.129 16.129 16.129 16.129 0 0 1 16.129-16.129 16.129 16.129 0 0 0-32.258 0zM661.29 32.258a16.129 16.129 0 0 1 16.129 16.129 16.129 16.129 0 0 1 16.129-16.129 16.129 16.129 0 0 0-32.258 0z"
		  class="tci-uet-shape-fill b"/>
	<path d="M629.032 32.258a16.129 16.129 0 0 1 16.129 16.129 16.129 16.129 0 0 1 16.129-16.129 16.129 16.129 0 0 0-32.258 0zM596.774 32.258A16.129 16.129 0 0 1 612.9 48.387a16.129 16.129 0 0 1 16.129-16.129 16.129 16.129 0 1 0-32.258 0z"
		  class="tci-uet-shape-fill b"/>
	<path d="M564.516 32.258a16.129 16.129 0 0 1 16.129 16.129 16.129 16.129 0 0 1 16.129-16.129 16.129 16.129 0 1 0-32.258 0z"
		  class="tci-uet-shape-fill b"/>
	<path d="M532.258 32.258a16.129 16.129 0 0 1 16.129 16.129 16.129 16.129 0 0 1 16.129-16.129 16.129 16.129 0 0 0-32.258 0zM500 32.258a16.129 16.129 0 0 1 16.129 16.129 16.129 16.129 0 0 1 16.129-16.129 16.129 16.129 0 0 0-32.258 0zM467.742 32.258a16.129 16.129 0 0 1 16.129 16.129A16.129 16.129 0 0 1 500 32.258a16.129 16.129 0 0 0-32.258 0zM435.484 32.258a16.129 16.129 0 0 1 16.129 16.129 16.129 16.129 0 0 1 16.129-16.129 16.129 16.129 0 0 0-32.258 0z"
		  class="tci-uet-shape-fill b"/>
	<path d="M403.226 32.258a16.129 16.129 0 0 1 16.129 16.129 16.129 16.129 0 0 1 16.129-16.129 16.129 16.129 0 1 0-32.258 0z"
		  class="tci-uet-shape-fill b"/>
	<path d="M370.968 32.258A16.129 16.129 0 0 1 387.1 48.387a16.129 16.129 0 0 1 16.129-16.129 16.129 16.129 0 0 0-32.258 0zM338.71 32.258a16.129 16.129 0 0 1 16.129 16.129 16.129 16.129 0 0 1 16.129-16.129 16.129 16.129 0 0 0-32.258 0z"
		  class="tci-uet-shape-fill b"/>
	<path d="M306.452 32.258a16.129 16.129 0 0 1 16.129 16.129 16.129 16.129 0 0 1 16.129-16.129 16.129 16.129 0 1 0-32.258 0z"
		  class="tci-uet-shape-fill b"/>
	<path d="M274.194 32.258a16.129 16.129 0 0 1 16.129 16.129 16.129 16.129 0 0 1 16.129-16.129 16.129 16.129 0 0 0-32.258 0zM241.935 32.258a16.13 16.13 0 0 1 16.13 16.129 16.129 16.129 0 0 1 16.129-16.129 16.13 16.13 0 0 0-32.259 0zM209.677 32.258a16.129 16.129 0 0 1 16.129 16.129 16.129 16.129 0 0 1 16.129-16.129 16.129 16.129 0 1 0-32.258 0z"
		  class="tci-uet-shape-fill b"/>
	<path d="M177.419 32.258a16.129 16.129 0 0 1 16.129 16.129 16.129 16.129 0 0 1 16.129-16.129 16.129 16.129 0 1 0-32.258 0zM145.161 32.258a16.129 16.129 0 0 1 16.129 16.129 16.129 16.129 0 0 1 16.129-16.129 16.129 16.129 0 0 0-32.258 0zM112.9 32.258a16.129 16.129 0 0 1 16.129 16.129 16.129 16.129 0 0 1 16.129-16.129 16.129 16.129 0 1 0-32.258 0z"
		  class="tci-uet-shape-fill b"/>
	<path d="M80.645 32.258a16.129 16.129 0 0 1 16.129 16.129A16.129 16.129 0 0 1 112.9 32.258a16.129 16.129 0 0 0-32.258 0z"
		  class="tci-uet-shape-fill b"/>
	<path d="M48.387 32.258a16.129 16.129 0 0 1 16.129 16.129 16.129 16.129 0 0 1 16.129-16.129 16.129 16.129 0 1 0-32.258 0zM32.258 48.387a16.129 16.129 0 0 1 16.129-16.129 16.129 16.129 0 1 0-32.258 0 16.129 16.129 0 0 1 16.129 16.129z"
		  class="tci-uet-shape-fill b"/>
	<g class="tci-uet-shape-fill c">
		<path class="tci-uet-shape-fill"
			  d="M983.871 32.258a16.129 16.129 0 0 0-16.129 16.129 16.129 16.129 0 0 1 16.129 16.129A16.129 16.129 0 0 1 1000 48.387a16.129 16.129 0 0 0-16.129-16.129z"/>
		<path class="tci-uet-shape-fill"
			  d="M951.613 32.258a16.129 16.129 0 0 0-16.129 16.129 16.129 16.129 0 0 1 16.129 16.129 16.129 16.129 0 0 1 16.129-16.129 16.129 16.129 0 0 0-16.129-16.129z"/>
	</g>
	<path d="M919.355 32.258a16.129 16.129 0 0 0-16.129 16.129 16.129 16.129 0 0 1 16.129 16.129 16.129 16.129 0 0 1 16.129-16.129 16.129 16.129 0 0 0-16.129-16.129z"
		  class="tci-uet-shape-fill c"/>
	<path d="M887.1 32.258a16.129 16.129 0 0 0-16.129 16.129A16.129 16.129 0 0 1 887.1 64.516a16.129 16.129 0 0 1 16.129-16.129A16.129 16.129 0 0 0 887.1 32.258zM854.839 32.258a16.129 16.129 0 0 0-16.129 16.129 16.129 16.129 0 0 1 16.129 16.129 16.129 16.129 0 0 1 16.129-16.129 16.129 16.129 0 0 0-16.129-16.129zM822.581 32.258a16.129 16.129 0 0 0-16.129 16.129 16.129 16.129 0 0 1 16.129 16.129 16.129 16.129 0 0 1 16.129-16.129 16.129 16.129 0 0 0-16.129-16.129zM790.323 32.258a16.129 16.129 0 0 0-16.129 16.129 16.129 16.129 0 0 1 16.129 16.129 16.129 16.129 0 0 1 16.129-16.129 16.129 16.129 0 0 0-16.129-16.129z"
		  class="tci-uet-shape-fill c"/>
	<path d="M758.065 32.258a16.13 16.13 0 0 0-16.13 16.129 16.13 16.13 0 0 1 16.13 16.129 16.129 16.129 0 0 1 16.129-16.129 16.129 16.129 0 0 0-16.129-16.129zM725.806 32.258a16.129 16.129 0 0 0-16.129 16.129 16.129 16.129 0 0 1 16.129 16.129 16.129 16.129 0 0 1 16.129-16.129 16.129 16.129 0 0 0-16.129-16.129zM693.548 32.258a16.129 16.129 0 0 0-16.129 16.129 16.129 16.129 0 0 1 16.129 16.129 16.129 16.129 0 0 1 16.129-16.129 16.129 16.129 0 0 0-16.129-16.129zM661.29 32.258a16.129 16.129 0 0 0-16.129 16.129 16.129 16.129 0 0 1 16.129 16.129 16.129 16.129 0 0 1 16.129-16.129 16.129 16.129 0 0 0-16.129-16.129zM629.032 32.258A16.129 16.129 0 0 0 612.9 48.387a16.129 16.129 0 0 1 16.129 16.129 16.129 16.129 0 0 1 16.129-16.129 16.129 16.129 0 0 0-16.126-16.129z"
		  class="tci-uet-shape-fill c"/>
	<path d="M596.774 32.258a16.129 16.129 0 0 0-16.129 16.129 16.129 16.129 0 0 1 16.129 16.129A16.129 16.129 0 0 1 612.9 48.387a16.129 16.129 0 0 0-16.126-16.129zM564.516 32.258a16.129 16.129 0 0 0-16.129 16.129 16.129 16.129 0 0 1 16.129 16.129 16.129 16.129 0 0 1 16.129-16.129 16.129 16.129 0 0 0-16.129-16.129z"
		  class="tci-uet-shape-fill c"/>
	<path d="M532.258 32.258a16.129 16.129 0 0 0-16.129 16.129 16.129 16.129 0 0 1 16.129 16.129 16.129 16.129 0 0 1 16.129-16.129 16.129 16.129 0 0 0-16.129-16.129zM500 32.258a16.129 16.129 0 0 0-16.129 16.129A16.129 16.129 0 0 1 500 64.516a16.129 16.129 0 0 1 16.129-16.129A16.129 16.129 0 0 0 500 32.258z"
		  class="tci-uet-shape-fill c"/>
	<path d="M467.742 32.258a16.129 16.129 0 0 0-16.129 16.129 16.129 16.129 0 0 1 16.129 16.129 16.129 16.129 0 0 1 16.129-16.129 16.129 16.129 0 0 0-16.129-16.129zM435.484 32.258a16.129 16.129 0 0 0-16.129 16.129 16.129 16.129 0 0 1 16.129 16.129 16.129 16.129 0 0 1 16.129-16.129 16.129 16.129 0 0 0-16.129-16.129z"
		  class="tci-uet-shape-fill c"/>
	<path d="M403.226 32.258A16.129 16.129 0 0 0 387.1 48.387a16.129 16.129 0 0 1 16.129 16.129 16.129 16.129 0 0 1 16.129-16.129 16.129 16.129 0 0 0-16.132-16.129z"
		  class="tci-uet-shape-fill c"/>
	<path d="M370.968 32.258a16.129 16.129 0 0 0-16.129 16.129 16.129 16.129 0 0 1 16.129 16.129A16.129 16.129 0 0 1 387.1 48.387a16.129 16.129 0 0 0-16.132-16.129zM338.71 32.258a16.129 16.129 0 0 0-16.129 16.129 16.129 16.129 0 0 1 16.129 16.129 16.129 16.129 0 0 1 16.129-16.129 16.129 16.129 0 0 0-16.129-16.129z"
		  class="tci-uet-shape-fill c"/>
	<path d="M306.452 32.258a16.129 16.129 0 0 0-16.129 16.129 16.129 16.129 0 0 1 16.129 16.129 16.129 16.129 0 0 1 16.129-16.129 16.129 16.129 0 0 0-16.129-16.129z"
		  class="tci-uet-shape-fill c"/>
	<path d="M274.194 32.258a16.129 16.129 0 0 0-16.129 16.129 16.129 16.129 0 0 1 16.129 16.129 16.129 16.129 0 0 1 16.129-16.129 16.129 16.129 0 0 0-16.129-16.129zM241.935 32.258a16.129 16.129 0 0 0-16.129 16.129 16.129 16.129 0 0 1 16.129 16.129 16.13 16.13 0 0 1 16.13-16.129 16.13 16.13 0 0 0-16.13-16.129zM209.677 32.258a16.129 16.129 0 0 0-16.129 16.129 16.129 16.129 0 0 1 16.129 16.129 16.129 16.129 0 0 1 16.129-16.129 16.129 16.129 0 0 0-16.129-16.129zM177.419 32.258a16.129 16.129 0 0 0-16.129 16.129 16.129 16.129 0 0 1 16.129 16.129 16.129 16.129 0 0 1 16.129-16.129 16.129 16.129 0 0 0-16.129-16.129zM145.161 32.258a16.129 16.129 0 0 0-16.129 16.129 16.129 16.129 0 0 1 16.129 16.129 16.129 16.129 0 0 1 16.129-16.129 16.129 16.129 0 0 0-16.129-16.129zM112.9 32.258a16.129 16.129 0 0 0-16.126 16.129A16.129 16.129 0 0 1 112.9 64.516a16.129 16.129 0 0 1 16.129-16.129A16.129 16.129 0 0 0 112.9 32.258z"
		  class="tci-uet-shape-fill c"/>
	<path d="M80.645 32.258a16.129 16.129 0 0 0-16.129 16.129 16.129 16.129 0 0 1 16.129 16.129 16.129 16.129 0 0 1 16.129-16.129 16.129 16.129 0 0 0-16.129-16.129z"
		  class="tci-uet-shape-fill c"/>
	<g class="tci-uet-shape-fill c">
		<path class="tci-uet-shape-fill"
			  d="M16.129 32.258A16.129 16.129 0 0 0 0 48.387a16.129 16.129 0 0 1 16.129 16.129 16.129 16.129 0 0 1 16.129-16.129 16.129 16.129 0 0 0-16.129-16.129z"/>
		<path class="tci-uet-shape-fill"
			  d="M48.387 32.258a16.129 16.129 0 0 0-16.129 16.129 16.129 16.129 0 0 1 16.129 16.129 16.129 16.129 0 0 1 16.129-16.129 16.129 16.129 0 0 0-16.129-16.129z"/>
	</g>
	<path d="M951.613 64.516a16.129 16.129 0 0 0-32.258 0 16.129 16.129 0 0 1 16.129 16.129 16.129 16.129 0 0 1 16.129-16.129z"
		  class="tci-uet-shape-fill d"/>
	<path d="M967.742 48.387a16.129 16.129 0 0 0-16.129 16.129 16.129 16.129 0 0 1 16.129 16.129 16.129 16.129 0 0 1 16.129-16.129 16.129 16.129 0 0 0-16.129-16.129zM919.355 64.516a16.129 16.129 0 0 0-32.258 0 16.129 16.129 0 0 1 16.129 16.129 16.129 16.129 0 0 1 16.129-16.129z"
		  class="tci-uet-shape-fill d"/>
	<path d="M887.1 64.516a16.129 16.129 0 0 0-32.258 0 16.129 16.129 0 0 1 16.129 16.129A16.129 16.129 0 0 1 887.1 64.516zM854.839 64.516a16.129 16.129 0 0 0-32.258 0 16.129 16.129 0 0 1 16.129 16.129 16.129 16.129 0 0 1 16.129-16.129zM822.581 64.516a16.129 16.129 0 1 0-32.258 0 16.129 16.129 0 0 1 16.129 16.129 16.129 16.129 0 0 1 16.129-16.129zM790.323 64.516a16.129 16.129 0 0 0-32.258 0 16.129 16.129 0 0 1 16.129 16.129 16.129 16.129 0 0 1 16.129-16.129z"
		  class="tci-uet-shape-fill d"/>
	<path d="M758.065 64.516a16.13 16.13 0 0 0-32.259 0 16.129 16.129 0 0 1 16.129 16.129 16.13 16.13 0 0 1 16.13-16.129zM725.806 64.516a16.129 16.129 0 0 0-32.258 0 16.129 16.129 0 0 1 16.129 16.129 16.129 16.129 0 0 1 16.129-16.129zM693.548 64.516a16.129 16.129 0 0 0-32.258 0 16.129 16.129 0 0 1 16.129 16.129 16.129 16.129 0 0 1 16.129-16.129zM661.29 64.516a16.129 16.129 0 0 0-32.258 0 16.129 16.129 0 0 1 16.129 16.129 16.129 16.129 0 0 1 16.129-16.129z"
		  class="tci-uet-shape-fill d"/>
	<path d="M629.032 64.516a16.129 16.129 0 1 0-32.258 0A16.129 16.129 0 0 1 612.9 80.645a16.129 16.129 0 0 1 16.132-16.129zM596.774 64.516a16.129 16.129 0 0 0-32.258 0 16.129 16.129 0 0 1 16.129 16.129 16.129 16.129 0 0 1 16.129-16.129zM564.516 64.516a16.129 16.129 0 0 0-32.258 0 16.129 16.129 0 0 1 16.129 16.129 16.129 16.129 0 0 1 16.129-16.129z"
		  class="tci-uet-shape-fill d"/>
	<path d="M532.258 64.516a16.129 16.129 0 0 0-32.258 0 16.129 16.129 0 0 1 16.129 16.129 16.129 16.129 0 0 1 16.129-16.129zM500 64.516a16.129 16.129 0 0 0-32.258 0 16.129 16.129 0 0 1 16.129 16.129A16.129 16.129 0 0 1 500 64.516z"
		  class="tci-uet-shape-fill d"/>
	<path d="M467.742 64.516a16.129 16.129 0 1 0-32.258 0 16.129 16.129 0 0 1 16.129 16.129 16.129 16.129 0 0 1 16.129-16.129z"
		  class="tci-uet-shape-fill d"/>
	<path d="M435.484 64.516a16.129 16.129 0 1 0-32.258 0 16.129 16.129 0 0 1 16.129 16.129 16.129 16.129 0 0 1 16.129-16.129zM403.226 64.516a16.129 16.129 0 0 0-32.258 0A16.129 16.129 0 0 1 387.1 80.645a16.129 16.129 0 0 1 16.126-16.129z"
		  class="tci-uet-shape-fill d"/>
	<path d="M370.968 64.516a16.129 16.129 0 0 0-32.258 0 16.129 16.129 0 0 1 16.129 16.129 16.129 16.129 0 0 1 16.129-16.129zM338.71 64.516a16.129 16.129 0 1 0-32.258 0 16.129 16.129 0 0 1 16.129 16.129 16.129 16.129 0 0 1 16.129-16.129z"
		  class="tci-uet-shape-fill d"/>
	<path d="M306.452 64.516a16.129 16.129 0 0 0-32.258 0 16.129 16.129 0 0 1 16.129 16.129 16.129 16.129 0 0 1 16.129-16.129zM274.194 64.516a16.13 16.13 0 0 0-32.259 0 16.13 16.13 0 0 1 16.13 16.129 16.129 16.129 0 0 1 16.129-16.129zM241.935 64.516a16.129 16.129 0 1 0-32.258 0 16.129 16.129 0 0 1 16.129 16.129 16.129 16.129 0 0 1 16.129-16.129zM209.677 64.516a16.129 16.129 0 0 0-32.258 0 16.129 16.129 0 0 1 16.129 16.129 16.129 16.129 0 0 1 16.129-16.129z"
		  class="tci-uet-shape-fill d"/>
	<path d="M177.419 64.516a16.129 16.129 0 0 0-32.258 0 16.129 16.129 0 0 1 16.129 16.129 16.129 16.129 0 0 1 16.129-16.129zM145.161 64.516a16.129 16.129 0 1 0-32.258 0 16.129 16.129 0 0 1 16.129 16.129 16.129 16.129 0 0 1 16.129-16.129zM112.9 64.516a16.129 16.129 0 0 0-32.258 0 16.129 16.129 0 0 1 16.132 16.129A16.129 16.129 0 0 1 112.9 64.516z"
		  class="tci-uet-shape-fill d"/>
	<path d="M80.645 64.516a16.129 16.129 0 1 0-32.258 0 16.129 16.129 0 0 1 16.129 16.129 16.129 16.129 0 0 1 16.129-16.129z"
		  class="tci-uet-shape-fill d"/>
	<path d="M48.387 64.516a16.129 16.129 0 1 0-32.258 0 16.129 16.129 0 0 1 16.129 16.129 16.129 16.129 0 0 1 16.129-16.129z"
		  class="tci-uet-shape-fill d"/>
	<path class="tci-uet-shape-fill"
		  d="M999.987 80.387a16.118 16.118 0 0 0-32.232 0h-.026a16.118 16.118 0 0 0-32.232 0h-.026a16.118 16.118 0 0 0-32.232 0h-.026a16.118 16.118 0 0 0-32.232 0h-.026a16.118 16.118 0 0 0-32.232 0h-.023a16.118 16.118 0 0 0-32.232 0h-.026a16.118 16.118 0 0 0-32.232 0h-.026a16.118 16.118 0 0 0-32.233 0h-.026a16.118 16.118 0 0 0-32.232 0h-.026a16.118 16.118 0 0 0-32.232 0h-.026a16.118 16.118 0 0 0-32.232 0h-.026a16.118 16.118 0 0 0-32.232 0h-.026a16.118 16.118 0 0 0-32.232 0h-.026a16.118 16.118 0 0 0-32.232 0h-.026a16.118 16.118 0 0 0-32.232 0h-.026a16.118 16.118 0 0 0-32.232 0h-.026a16.118 16.118 0 0 0-32.232 0h-.029a16.118 16.118 0 0 0-32.232 0h-.026a16.118 16.118 0 0 0-32.232 0h-.026a16.118 16.118 0 0 0-32.232 0h-.026a16.118 16.118 0 0 0-32.232 0h-.026a16.118 16.118 0 0 0-32.232 0h-.026a16.118 16.118 0 0 0-32.232 0h-.026a16.118 16.118 0 0 0-32.233 0h-.026a16.118 16.118 0 0 0-32.232 0h-.026a16.118 16.118 0 0 0-32.232 0h-.026a16.118 16.118 0 0 0-32.232 0h-.026a16.118 16.118 0 0 0-32.232 0h-.026a16.118 16.118 0 0 0-32.232 0H64.5a16.118 16.118 0 0 0-32.232 0h-.026a16.118 16.118 0 0 0-32.232 0H0v19h1000v-19z"/>
	<path d="M1000 16.129a16.129 16.129 0 0 0-16.129 16.129A16.129 16.129 0 0 1 1000 48.387z"
		  class="tci-uet-shape-fill b"/>
	<path d="M1000 48.387a16.129 16.129 0 0 0-16.129 16.129A16.129 16.129 0 0 1 1000 80.645z"
		  class="tci-uet-shape-fill d"/>
	<path d="M0 16.129v32.257a16.129 16.129 0 0 1 16.129-16.128A16.129 16.129 0 0 0 0 16.129z"
		  class="tci-uet-shape-fill b"/>
	<path d="M0 48.387v32.257a16.129 16.129 0 0 1 16.129-16.128A16.129 16.129 0 0 0 0 48.387z"
		  class="tci-uet-shape-fill d"/>
</svg>