<svg class="tci-uet-shap" xmlns="http://www.w3.org/2000/svg" preserveAspectRatio="none" viewBox="0 0 2000 139.45">
	<path class="tci-uet-shape-fill" d="M2000,139.45c0-6.68,0-11.07,0-12.73c-78.98-52.7-168.94-83.49-272.01-85.7c-76.87-1.65-152.94,10.58-228.02,22.34	c-77.24,12.1-155.44,24.57-234.53,22.14c-100.52-3.08-188.39-34.08-265.39-85.43c0-0.02,0-0.05,0-0.07	c-0.02,0.01-0.04,0.02-0.06,0.04c-0.02-0.01-0.04-0.02-0.06-0.04c0,0.02,0,0.05,0,0.07C922.95,51.42,835.08,82.42,734.56,85.5	c-79.09,2.43-157.29-10.05-234.53-22.14C424.95,51.6,348.89,39.37,272.01,41.02C168.94,43.22,78.98,74.01,0,126.72	c0,1.66,0,6.05,0,12.73H2000z"></path>
</svg>