<svg class="tci-uet-shap" xmlns="http://www.w3.org/2000/svg" viewBox="0 0 1000.05 140.82" preserveAspectRatio="xMidYMin slice">
	<path class="tci-uet-shape-fill" d="M155.3 106.69c4.64-2.87 9.23-2.9 14.06.12a11.57 11.57 0 0 1-1.83-8.52 10.76 10.76 0 0 1 4.71-7.1 11 11 0 0 1 13.25.81c4.18 3.64 4.86 8.56 1.89 14.78a12.41 12.41 0 0 1 7-2.25 12.74 12.74 0 0 1 7 2.1 11.67 11.67 0 0 1-1.63-8.63 10.78 10.78 0 0 1 5.13-7.08A11 11 0 0 1 218 92.3c3.92 3.7 4.51 8.77 1.54 14.45 4.73-2.94 9.34-3 14 0-2.92-6.84-2-11.88 2.7-15.28a11 11 0 0 1 13.65.61c3.36 2.94 5.51 8.6 1.77 14.73 4.78-2.93 9.39-3 14.23.06A11.6 11.6 0 0 1 264 98.5a10.82 10.82 0 0 1 4.27-7 11 11 0 0 1 13.38.2c4.39 3.48 5.15 8.3 2.31 15 4.64-2.88 9.23-2.9 14.06.12a11.57 11.57 0 0 1-1.83-8.52 10.8 10.8 0 0 1 4.71-7.1 11 11 0 0 1 13.16.73c4.25 3.61 4.95 8.56 2 14.79 4.66-2.89 9.25-2.92 14.1.1a11.52 11.52 0 0 1-1.79-8.73 10.75 10.75 0 0 1 5.05-7.09 11 11 0 0 1 13.21 1.35c3.91 3.7 4.49 8.72 1.51 14.49a12.7 12.7 0 0 1 7.1-2.26 12.28 12.28 0 0 1 6.94 2.23c-2.95-6.78-2.06-11.87 2.58-15.27a11 11 0 0 1 13.74.46c3.33 2.9 5.53 8.55 1.78 14.72 4.77-2.93 9.38-3 14.24.07a11.32 11.32 0 0 1-1.61-9.62 10.73 10.73 0 0 1 4-5.7 11 11 0 0 1 13.28.13c4.47 3.45 5.26 8.26 2.46 15 6-2.78 8.55-2.78 14 .16a11.53 11.53 0 0 1-1.79-8.47 11 11 0 0 1 17.87-6.35c4.24 3.59 4.94 8.5 2 14.78 4.66-2.89 9.24-2.92 14.09.1a11.49 11.49 0 0 1-1.82-8.74 10.79 10.79 0 0 1 5-7.08 11 11 0 0 1 13.22 1.22c4 3.69 4.59 8.71 1.64 14.52 4.71-2.93 9.33-2.95 14 0-2.95-6.66-2.05-11.81 2.59-15.21a11 11 0 0 1 13.66.47c3.36 2.87 5.65 8.55 1.86 14.8 4.77-2.94 9.38-3 14-.08-2.78-7-2-11.69 2.52-15.1a11 11 0 0 1 13.38.06c4.45 3.45 5.23 8.19 2.42 15 4.63-2.87 9.21-2.89 14 .13a11.54 11.54 0 0 1-1.86-8.41 10.79 10.79 0 0 1 4.57-7.08 11 11 0 0 1 13.27.53c4.28 3.56 5 8.5 2.11 14.85 4.66-2.89 9.25-2.91 14.1.11a11.47 11.47 0 0 1-1.8-8.74 10.81 10.81 0 0 1 5-7.07 11 11 0 0 1 13.14 1.15c4 3.67 4.68 8.68 1.73 14.58 4.68-2.9 9.26-2.94 14.12.07-1.76-2.93-2.48-5.82-1.73-8.93a10.76 10.76 0 0 1 5.29-7.1 11 11 0 0 1 13.08 1.68c2.89 2.8 5 8.19 1.33 14.31 4.77-2.94 9.38-3 14-.08-2.81-7-2-11.68 2.52-15.11a11 11 0 0 1 13.28 0c4.52 3.43 5.32 8.14 2.51 15.11 4.63-2.87 9.22-2.89 14 .13a11.56 11.56 0 0 1-1.85-8.42 10.79 10.79 0 0 1 4.53-7.08 11 11 0 0 1 13.27.54c4.27 3.55 5 8.44 2.12 14.85 4.65-2.89 9.24-2.91 14.08.11a11.51 11.51 0 0 1-1.81-8.63 10.81 10.81 0 0 1 4.88-7.12 11 11 0 0 1 13.14 1c4.12 3.66 4.78 8.66 1.83 14.65 4.67-2.9 9.26-2.93 14.11.08a11.47 11.47 0 0 1-1.78-8.79 10.79 10.79 0 0 1 5.22-7.15 10.94 10.94 0 0 1 13.18 1.63c3.78 3.7 4.31 8.76 1.36 14.29 4.74-2.94 9.35-3 14-.06-2.82-6.84-2-11.6 2.41-15a11 11 0 0 1 13.36-.13c4.51 3.41 5.3 8.06 2.52 15.09 4.62-2.86 9.21-2.87 14 .14a11.47 11.47 0 0 1-1.85-8.42 10.75 10.75 0 0 1 4.44-7 11 11 0 0 1 13.27.4c4.34 3.52 5.09 8.41 2.22 14.92 4.65-2.89 9.23-2.91 14.08.12a11.5 11.5 0 0 1-1.82-8.64 10.78 10.78 0 0 1 4.78-7.05 10.94 10.94 0 0 1 13.24.94c4.12 3.66 4.77 8.6 1.83 14.65 4.68-2.9 9.26-2.93 14.12.09a11.48 11.48 0 0 1-1.72-8.82 10.8 10.8 0 0 1 5.23-7.15 11 11 0 0 1 13.09 1.56c3.85 3.7 4.41 8.77 1.44 14.37 4.74-2.94 9.35-3 14-.06-2.91-6.9-2-11.88 2.7-15.26a11 11 0 0 1 13.65.6c3.39 3 5.49 8.65 1.77 14.74 4.78-2.94 9.39-3 14.23 0a11.54 11.54 0 0 1-1.88-8.32 10.79 10.79 0 0 1 4.37-7 10.94 10.94 0 0 1 13.37.33c4.32 3.52 5.06 8.34 2.22 14.91 4.64-2.87 9.23-2.9 14.06.12a11.57 11.57 0 0 1-1.83-8.52 10.79 10.79 0 0 1 4.71-7.1 11 11 0 0 1 13.25.81c4.18 3.64 4.86 8.57 1.92 14.72a14.85 14.85 0 0 1 4.2-1.86 10.94 10.94 0 0 1 4.42-.17v23.39c-1.64.45-3.27 0-5-.17a16.15 16.15 0 0 1 .71 5.47 16.72 16.72 0 0 1 4.29-.08v7.52H.1v-7.55a13.38 13.38 0 0 1 3.93.09 17.9 17.9 0 0 1 .86-5.49 14.5 14.5 0 0 1-4.81.24v-23.48a11.83 11.83 0 0 1 8.8 2.43C5.41 100.76 6 95.26 12 91.06a10.65 10.65 0 0 1 12.75.74c4.18 3.42 4.95 7.91 2.43 14.57 4.56-2.53 9-2.47 13.6.46a11.56 11.56 0 0 1-1.8-8.75A10.78 10.78 0 0 1 44 91a11 11 0 0 1 13.1 1.22c4 3.69 4.59 8.74 1.63 14.52 4.72-2.93 9.33-2.95 14 0-2.93-6.7-2-11.81 2.6-15.21a11 11 0 0 1 13.73.47c3.32 2.89 5.54 8.53 1.73 14.8a12.31 12.31 0 0 1 14.07-.2 11.49 11.49 0 0 1-1.39-9.43 10.7 10.7 0 0 1 4-5.7 11 11 0 0 1 13.28.13c4.46 3.45 5.24 8.23 2.45 15 5.94-2.8 8.53-2.79 14 .14a11.54 11.54 0 0 1-1.81-8.34 10.82 10.82 0 0 1 4.54-7.08 11 11 0 0 1 13.17.45c4.3 3.51 5.04 8.34 2.2 14.92zm820.7 2.78a12.88 12.88 0 0 1 1.7 10.4 13.94 13.94 0 0 1 9.28 0 12.7 12.7 0 0 1 1.91-10.64c-4.48 2.77-8.65 2.77-12.89.24zm-450.21 0a12.8 12.8 0 0 1 1.65 10.37 14.19 14.19 0 0 1 9.3 0 12.65 12.65 0 0 1 1.91-10.62c-4.48 2.78-8.65 2.78-12.86.28zm43.11 10.32a12.78 12.78 0 0 1 1.65-10.36 11.57 11.57 0 0 1-12.64 0 12.68 12.68 0 0 1 1.71 10.33 18.85 18.85 0 0 1 4.61-.75 18.21 18.21 0 0 1 4.67.81zm22.88 0a19.91 19.91 0 0 1 4.62-.77 24.14 24.14 0 0 1 4.67.73 13 13 0 0 1-.3-5.37 13.56 13.56 0 0 1 2.16-5.17c-4.46 2.76-8.64 2.71-12.86.24a12.73 12.73 0 0 1 1.71 10.36zm32.13.07a14.05 14.05 0 0 1 9.34 0 13.12 13.12 0 0 1-.33-5.42 13.7 13.7 0 0 1 2.15-5.18c-4.42 2.71-8.6 2.7-12.83.21a12.74 12.74 0 0 1 1.67 10.41zm32.16 0a17.19 17.19 0 0 1 4.71-.79 20.5 20.5 0 0 1 4.58.74 12.76 12.76 0 0 1 1.64-10.35c-4.23 2.52-8.4 2.5-12.88-.24a12.64 12.64 0 0 1 1.95 10.62zm105.79 0a12.91 12.91 0 0 1 1.64-10.4 11.59 11.59 0 0 1-12.62 0 12.85 12.85 0 0 1 1.7 10.38 13.94 13.94 0 0 1 9.28.03zm22.84 0a13.93 13.93 0 0 1 9.32 0 12.8 12.8 0 0 1 1.66-10.4c-4.23 2.52-8.4 2.5-12.88-.24a12.66 12.66 0 0 1 1.9 10.66zm32.17 0a16.42 16.42 0 0 1 4.68-.8 19.34 19.34 0 0 1 4.61.75 12.84 12.84 0 0 1 1.66-10.33c-4.25 2.52-8.41 2.46-12.87-.23a12.57 12.57 0 0 1 1.92 10.6zM860 109.49a11.6 11.6 0 0 1-12.61 0 12.79 12.79 0 0 1 1.7 10.41 13.79 13.79 0 0 1 9.27 0 14.87 14.87 0 0 1-.29-5.36 14.33 14.33 0 0 1 1.93-5.05zm32.21 0a11.61 11.61 0 0 1-12.65 0 12.88 12.88 0 0 1 1.7 10.4 13.94 13.94 0 0 1 9.28 0 12.78 12.78 0 0 1 1.63-10.43zm19.25-.24a12.56 12.56 0 0 1 2 10.57A20.79 20.79 0 0 1 918 119a21.88 21.88 0 0 1 4.67.74 14.12 14.12 0 0 1-.28-5.35 13.93 13.93 0 0 1 2.15-5.18c-4.46 2.79-8.63 2.79-13.12.01zm32.45.28a12.79 12.79 0 0 1 1.65 10.37 14.19 14.19 0 0 1 9.3 0 12.65 12.65 0 0 1 1.91-10.62c-4.51 2.72-8.66 2.72-12.9.22zM697.52 119.8a12.79 12.79 0 0 1 1.67-10.34 12.19 12.19 0 0 1-6.34 1.86 12.84 12.84 0 0 1-6.27-1.82 12.82 12.82 0 0 1 1.69 10.32 17.45 17.45 0 0 1 4.65-.77 19.26 19.26 0 0 1 4.6.75zm-385.9 0a12.82 12.82 0 0 1 1.65-10.36 11.57 11.57 0 0 1-12.64 0 12.68 12.68 0 0 1 1.71 10.33 18.85 18.85 0 0 1 4.61-.75 18.21 18.21 0 0 1 4.67.8zm-30.53-10.33a11.64 11.64 0 0 1-12.61 0 12.79 12.79 0 0 1 1.71 10.34 17.79 17.79 0 0 1 4.64-.77 19.18 19.18 0 0 1 4.6.75 12.83 12.83 0 0 1 1.66-10.3zm-44.74 0a12.81 12.81 0 0 1 1.65 10.39 13.88 13.88 0 0 1 9.28 0 12.88 12.88 0 0 1 1.66-10.4 11.6 11.6 0 0 1-12.59.04zm-30.41 10.29a18.23 18.23 0 0 1 4.55-.74 19.34 19.34 0 0 1 4.65.76 12.35 12.35 0 0 1 1.86-10.55c-4.47 2.76-8.64 2.71-13 .09 2.3 4.06 2.44 4.85 1.94 10.47zm-23 .08a12.9 12.9 0 0 1 1.66-10.41 11.59 11.59 0 0 1-12.64 0 12.76 12.76 0 0 1 1.7 10.39 13.88 13.88 0 0 1 9.34.05zm-30.51-10.38c-4.22 2.49-8.4 2.46-12.87-.27a12.63 12.63 0 0 1 1.92 10.65 14.15 14.15 0 0 1 9.31 0 12.82 12.82 0 0 1 1.67-10.35zm577.25 10.38a12.4 12.4 0 0 1 1.86-10.64c-4.47 2.76-8.64 2.71-12.86.24a12.78 12.78 0 0 1 1.7 10.39 13.93 13.93 0 0 1 9.33.04zm-611.05-.05a12.77 12.77 0 0 1 1.65-10.36 11.57 11.57 0 0 1-12.64 0 12.74 12.74 0 0 1 1.7 10.37 16.53 16.53 0 0 1 4.62-.79 18.21 18.21 0 0 1 4.7.81zm-32.16 0a12.41 12.41 0 0 1 1.86-10.58c-4.45 2.75-8.63 2.71-12.85.23a12.74 12.74 0 0 1 1.7 10.37 16.91 16.91 0 0 1 4.62-.79 18.21 18.21 0 0 1 4.7.8zm-43.35-10.51a12.6 12.6 0 0 1 1.93 10.59 14.19 14.19 0 0 1 9.3 0 12.58 12.58 0 0 1 1.82-10.51c-5.09 2.64-7.99 2.64-13.05-.08zm321.63 0a12.62 12.62 0 0 1 1.9 10.56 13.87 13.87 0 0 1 9.3 0 13.93 13.93 0 0 1-.3-5.49 13.58 13.58 0 0 1 2.1-5.06c-4.96 2.71-7.87 2.71-13 .01zm-31.92.21a12.76 12.76 0 0 1 1.65 10.36 14.06 14.06 0 0 1 9.3 0 12.58 12.58 0 0 1 1.83-10.51c-5.39 3.03-9.22 2.16-12.78.17zm75.31 10.37a13.06 13.06 0 0 1-.33-5.47 14.71 14.71 0 0 1 1.91-4.94 12.14 12.14 0 0 1-6.26 1.85 12.57 12.57 0 0 1-6.33-1.84 12.79 12.79 0 0 1 1.67 10.39 13.93 13.93 0 0 1 9.34.03zm21.17-10.38a12.81 12.81 0 0 1 1.69 10.38 13.94 13.94 0 0 1 9.28 0 12.88 12.88 0 0 1 1.66-10.4 11.6 11.6 0 0 1-12.63.04zm32.16 0a12.83 12.83 0 0 1 1.65 10.38 14.21 14.21 0 0 1 9.33 0 13 13 0 0 1-.32-5.44 13.52 13.52 0 0 1 2.15-5.16c-4.43 2.74-8.58 2.74-12.81.23zm44.73 0a11.6 11.6 0 0 1-12.61 0 12.76 12.76 0 0 1 1.7 10.39 13.85 13.85 0 0 1 9.27 0 14.93 14.93 0 0 1-.29-5.37 14.33 14.33 0 0 1 1.93-5.01zm-495.11-.24a12.88 12.88 0 0 1 1.81 10.56 20.18 20.18 0 0 1 4.59-.76 22 22 0 0 1 4.68.74 12.59 12.59 0 0 1 1.69-10.23c-4.52 2.45-8.66 2.3-12.77-.3zm663.07 24.16a17.64 17.64 0 0 1 5.28 0 17.23 17.23 0 0 1 .8-5.57 14.73 14.73 0 0 1-6.86.05 16.47 16.47 0 0 1 .78 5.53zm37.45 0a17.74 17.74 0 0 1 .77-5.6 14.43 14.43 0 0 1-6.85.06 16.61 16.61 0 0 1 .8 5.51 18 18 0 0 1 5.28.04zm33-5.6a14.64 14.64 0 0 1-6.93 0 17.33 17.33 0 0 1 .89 5.54 17.91 17.91 0 0 1 5.22 0 16.7 16.7 0 0 1 .79-5.53zm25.28 0a18.35 18.35 0 0 1 .82 5.55 18.92 18.92 0 0 1 5.26 0 16.7 16.7 0 0 1 .76-5.52 14.64 14.64 0 0 1-6.87.02zm38.22 5.53a17.45 17.45 0 0 1 .8-5.56 14.81 14.81 0 0 1-6.91 0 17.28 17.28 0 0 1 .89 5.54 17.57 17.57 0 0 1 5.19.07zm32.21 0a16.13 16.13 0 0 1 .72-5.55 14.91 14.91 0 0 1-6.87 0 16 16 0 0 1 .84 5.55 17.51 17.51 0 0 1 5.28.08zm26-5.57a16.23 16.23 0 0 1 .83 5.56 19.2 19.2 0 0 1 5.3 0 16.27 16.27 0 0 1 .72-5.51 14.69 14.69 0 0 1-6.86.03zm39 0a13.89 13.89 0 0 1-6.84 0 18.09 18.09 0 0 1 .81 5.56 18.75 18.75 0 0 1 5.29 0 16.21 16.21 0 0 1 .76-5.5zm26.11 5.57a19.06 19.06 0 0 1 5.28 0 17.7 17.7 0 0 1 .78-5.6 14.11 14.11 0 0 1-6.86.1 16.54 16.54 0 0 1 .82 5.56zm-578.87 0a18.46 18.46 0 0 1 5.3 0 16.93 16.93 0 0 1 .72-5.55 14.64 14.64 0 0 1-6.87 0 15.51 15.51 0 0 1 .87 5.62zm617.11-5.63a14.11 14.11 0 0 1-6.92.1 15.69 15.69 0 0 1 .86 5.51 19.13 19.13 0 0 1 5.29 0 15.67 15.67 0 0 1 .79-5.54zm-933.41 5.7a16.67 16.67 0 0 1 .76-5.54 14.91 14.91 0 0 1-6.84 0 18 18 0 0 1 .81 5.54 17.9 17.9 0 0 1 5.27 0zm32.9-5.54a14.69 14.69 0 0 1-6.82 0 18 18 0 0 1 .81 5.55 18.75 18.75 0 0 1 5.29 0 16.58 16.58 0 0 1 .72-5.55zm31.45 5.55a16.76 16.76 0 0 1 .71-5.59 14.48 14.48 0 0 1-6.83.05 16.61 16.61 0 0 1 .8 5.51 18.26 18.26 0 0 1 5.32.03zm32.94-5.59a14.72 14.72 0 0 1-6.92 0 18.09 18.09 0 0 1 .87 5.55 17.17 17.17 0 0 1 5.21 0 16.53 16.53 0 0 1 .84-5.55zm32.15 0a14.6 14.6 0 0 1-6.92 0 17.88 17.88 0 0 1 .88 5.54 17.91 17.91 0 0 1 5.22 0 16.7 16.7 0 0 1 .82-5.55zm32.15 0a14.57 14.57 0 0 1-6.88.08 16.36 16.36 0 0 1 .8 5.51 19.06 19.06 0 0 1 5.28 0 16.58 16.58 0 0 1 .8-5.61zm26.07 5.61a17.65 17.65 0 0 1 5.28 0 17.34 17.34 0 0 1 .81-5.6 14 14 0 0 1-6.87.1 16.13 16.13 0 0 1 .78 5.48zm31.36-5.56a16.7 16.7 0 0 1 .81 5.56 18.32 18.32 0 0 1 5.28 0 18 18 0 0 1 .77-5.57 13.86 13.86 0 0 1-6.86-.01zm39.06-.09a14 14 0 0 1-6.93.12 16 16 0 0 1 .87 5.51 18.84 18.84 0 0 1 5.25 0 16.71 16.71 0 0 1 .81-5.65zm31.35 5.62a17.61 17.61 0 0 1 .77-5.56 14.56 14.56 0 0 1-6.85.05 16.54 16.54 0 0 1 .8 5.51 19.45 19.45 0 0 1 5.28-.02zm58.18-5.55a16.61 16.61 0 0 1 .9 5.58 18 18 0 0 1 5.24 0 16.68 16.68 0 0 1 .8-5.56 14.05 14.05 0 0 1-6.94-.04zm33 5.56a19 19 0 0 1 5.27 0 16.7 16.7 0 0 1 .8-5.57 14.6 14.6 0 0 1-6.89.07 16.46 16.46 0 0 1 .85 5.48zm31.31-5.59a18.16 18.16 0 0 1 .89 5.6 17.91 17.91 0 0 1 5.22 0 16.69 16.69 0 0 1 .8-5.53 14.18 14.18 0 0 1-6.88-.09zm32.14 0a16.49 16.49 0 0 1 .9 5.57 18.77 18.77 0 0 1 5.24 0 16.92 16.92 0 0 1 .77-5.51 14.68 14.68 0 0 1-6.88-.06zm38.29 5.57a17 17 0 0 1 .81-5.6 14.14 14.14 0 0 1-6.9.08 18 18 0 0 1 .87 5.53 17.56 17.56 0 0 1 5.25-.01zm26.89 0a19.06 19.06 0 0 1 5.28 0 17.74 17.74 0 0 1 .78-5.6 14.11 14.11 0 0 1-6.86.1 16.52 16.52 0 0 1 .83 5.49zm38.23-5.57a14.52 14.52 0 0 1-6.87.06 16.61 16.61 0 0 1 .8 5.51 19.2 19.2 0 0 1 5.3 0 16 16 0 0 1 .8-5.58zm32.18 0a14.81 14.81 0 0 1-6.91.05 17.71 17.71 0 0 1 .87 5.53 17.56 17.56 0 0 1 5.22 0 16.7 16.7 0 0 1 .85-5.58zm32.11 0a14.73 14.73 0 0 1-6.83 0 18 18 0 0 1 .81 5.56 18.39 18.39 0 0 1 5.29 0 16.07 16.07 0 0 1 .76-5.52z"/>
	<path class="tci-uet-shape-fill" d="M976.36 84.21a10.12 10.12 0 1 1-10.18-10.08 10.07 10.07 0 0 1 10.18 10.08zM924 84.24a10.12 10.12 0 1 1 10.14 10.12A10.07 10.07 0 0 1 924 84.24zM891.81 84.27A10.12 10.12 0 1 1 902 94.36a10.07 10.07 0 0 1-10.19-10.09zM869.8 94.36a10.12 10.12 0 1 1 10.08-10.18 10.08 10.08 0 0 1-10.08 10.18zM837.64 94.36a10.12 10.12 0 1 1 10.08-10.18 10.08 10.08 0 0 1-10.08 10.18zM795.33 84.29a10.12 10.12 0 1 1 10.19 10.07 10.08 10.08 0 0 1-10.19-10.07zM763.17 84.29a10.12 10.12 0 1 1 10.19 10.07 10.07 10.07 0 0 1-10.19-10.07zM741.15 74.13A10.12 10.12 0 1 1 731 84.25a10.07 10.07 0 0 1 10.15-10.12zM708.93 94.36a10.12 10.12 0 1 1 10.15-10.11 10.07 10.07 0 0 1-10.15 10.11zM666.69 84.19a10.12 10.12 0 1 1 10.09 10.17 10.07 10.07 0 0 1-10.09-10.17zM644.67 74.13a10.12 10.12 0 1 1-10.14 10.12 10.07 10.07 0 0 1 10.14-10.12zM602.37 84.27a10.12 10.12 0 1 1 10.17 10.09 10.07 10.07 0 0 1-10.17-10.09zM570.21 84.24a10.12 10.12 0 1 1 10.14 10.12 10.08 10.08 0 0 1-10.14-10.12zM558.28 84.21a10.12 10.12 0 1 1-10.18-10.08 10.07 10.07 0 0 1 10.18 10.08zM505.89 84.21A10.12 10.12 0 1 1 516 94.36a10.07 10.07 0 0 1-10.11-10.15zM483.82 74.13a10.12 10.12 0 1 1-10.09 10.17 10.07 10.07 0 0 1 10.09-10.17zM451.66 74.13a10.12 10.12 0 1 1-10.09 10.17 10.07 10.07 0 0 1 10.09-10.17zM419.5 74.13a10.12 10.12 0 1 1-10.09 10.17 10.07 10.07 0 0 1 10.09-10.17zM387.34 74.13a10.12 10.12 0 1 1-10.09 10.17 10.07 10.07 0 0 1 10.09-10.17zM355.18 74.13a10.12 10.12 0 1 1-10.09 10.17 10.07 10.07 0 0 1 10.09-10.17zM323 74.13a10.12 10.12 0 1 1-10.07 10.17A10.07 10.07 0 0 1 323 74.13zM290.86 74.13a10.12 10.12 0 1 1-10.09 10.17 10.07 10.07 0 0 1 10.09-10.17zM258.7 74.13a10.12 10.12 0 1 1-10.09 10.17 10.07 10.07 0 0 1 10.09-10.17zM226.78 74.13a10.12 10.12 0 1 1-10.09 10.17 10.07 10.07 0 0 1 10.09-10.17zM184.53 84.27a10.12 10.12 0 1 1 10.17 10.09 10.07 10.07 0 0 1-10.17-10.09zM152.37 84.24a10.12 10.12 0 1 1 10.14 10.12 10.08 10.08 0 0 1-10.14-10.12zM120.21 84.22a10.12 10.12 0 1 1 10.12 10.14 10.07 10.07 0 0 1-10.12-10.14zM98.19 74.13a10.12 10.12 0 1 1-10.14 10.12 10.07 10.07 0 0 1 10.14-10.12zM66 74.13a10.12 10.12 0 1 1-10.06 10.2A10.07 10.07 0 0 1 66 74.13zM44 84.22a10.12 10.12 0 1 1-10.21-10.09A10.07 10.07 0 0 1 44 84.22zM8.55 68a9.22 9.22 0 1 1 9.06 9.37A9.18 9.18 0 0 1 8.55 68zM973.11 68.18a9.22 9.22 0 1 1 9.23 9.2 9.18 9.18 0 0 1-9.23-9.2zM941 68a9.22 9.22 0 1 1 9 9.39 9.18 9.18 0 0 1-9-9.39zM908.79 68.19a9.22 9.22 0 1 1 9.21 9.19 9.18 9.18 0 0 1-9.21-9.19zM885.81 59a9.22 9.22 0 1 1-9.18 9.25 9.17 9.17 0 0 1 9.18-9.25zM853.68 77.38a9.22 9.22 0 1 1 9.22-9.21 9.18 9.18 0 0 1-9.22 9.21zM812.31 68.16a9.22 9.22 0 1 1 9.21 9.22 9.17 9.17 0 0 1-9.21-9.22zM789.53 59a9.22 9.22 0 1 1-9.38 9 9.18 9.18 0 0 1 9.38-9zM757.27 77.38a9.22 9.22 0 1 1 9.15-9.27 9.18 9.18 0 0 1-9.15 9.27zM715.83 68a9.22 9.22 0 1 1 9 9.38 9.19 9.19 0 0 1-9-9.38zM683.67 68.17a9.22 9.22 0 1 1 9.22 9.21 9.18 9.18 0 0 1-9.22-9.21zM660.78 77.38a9.22 9.22 0 1 1 9.16-9.27 9.18 9.18 0 0 1-9.16 9.27zM628.58 77.38a9.22 9.22 0 1 1 9.2-9.23 9.18 9.18 0 0 1-9.2 9.23zM587.19 68.19a9.22 9.22 0 1 1 9.24 9.19 9.18 9.18 0 0 1-9.24-9.19zM50.1 59a9.22 9.22 0 1 1-9.39 9 9.18 9.18 0 0 1 9.39-9zM532 59a9.22 9.22 0 1 1-9.16 9.27A9.18 9.18 0 0 1 532 59zM500 77.38a9.22 9.22 0 1 1 9.16-9.27 9.18 9.18 0 0 1-9.16 9.27zM458.55 68.21a9.22 9.22 0 1 1 9.26 9.17 9.18 9.18 0 0 1-9.26-9.17zM426.63 68.22a9.22 9.22 0 1 1 9.27 9.16 9.18 9.18 0 0 1-9.27-9.16zM394.47 68.22a9.22 9.22 0 1 1 9.27 9.16 9.18 9.18 0 0 1-9.27-9.16zM362.31 68a9.22 9.22 0 1 1 9 9.39 9.18 9.18 0 0 1-9-9.39zM339.36 77.38a9.22 9.22 0 1 1 9.22-9.21 9.18 9.18 0 0 1-9.22 9.21zM564.24 77.38a9.22 9.22 0 1 1 9.22-9.21 9.17 9.17 0 0 1-9.22 9.21zM265.83 68a9.22 9.22 0 1 1 9.05 9.39 9.18 9.18 0 0 1-9.05-9.39zM242.88 77.38a9.22 9.22 0 1 1 9.22-9.21 9.18 9.18 0 0 1-9.22 9.21zM201.51 68.16a9.22 9.22 0 1 1 9.21 9.22 9.17 9.17 0 0 1-9.21-9.22zM169.35 68.18a9.22 9.22 0 1 1 9.23 9.2 9.18 9.18 0 0 1-9.23-9.2zM137.19 68a9.22 9.22 0 1 1 9 9.39 9.18 9.18 0 0 1-9-9.39zM105 68.18a9.22 9.22 0 1 1 9.23 9.2 9.18 9.18 0 0 1-9.23-9.2zM82 77.38a9.22 9.22 0 1 1 9.3-9.08 9.18 9.18 0 0 1-9.3 9.08zM307.38 59a9.22 9.22 0 1 1-9.38 9 9.18 9.18 0 0 1 9.38-9zM98.12 43.88A8.21 8.21 0 1 1 90 52.13a8.15 8.15 0 0 1 8.12-8.25zM57.8 52.11A8.21 8.21 0 1 1 66 60.3a8.14 8.14 0 0 1-8.2-8.19zM25.64 52.05a8.21 8.21 0 1 1 8.17 8.25 8.14 8.14 0 0 1-8.17-8.25zM974.46 52.2a8.21 8.21 0 1 1-8.1-8.32 8.17 8.17 0 0 1 8.1 8.32zM934.07 43.88a8.21 8.21 0 1 1-8.19 8.22 8.15 8.15 0 0 1 8.19-8.22zM901.93 60.3a8.21 8.21 0 1 1 8.21-8.22 8.15 8.15 0 0 1-8.21 8.22zM869.72 60.3a8.21 8.21 0 1 1 8.28-8.17 8.15 8.15 0 0 1-8.28 8.17zM829.4 52.13a8.21 8.21 0 1 1 8.25 8.17 8.14 8.14 0 0 1-8.25-8.17zM797.24 52a8.21 8.21 0 1 1 8.15 8.27 8.14 8.14 0 0 1-8.15-8.27zM765.08 52.07a8.21 8.21 0 1 1 8.19 8.23 8.14 8.14 0 0 1-8.19-8.23zM741.14 43.88a8.21 8.21 0 1 1-8.22 8.19 8.15 8.15 0 0 1 8.22-8.19zM700.76 52.09A8.21 8.21 0 1 1 709 60.3a8.14 8.14 0 0 1-8.24-8.21zM677.06 43.88a8.21 8.21 0 1 1-8.22 8.19 8.15 8.15 0 0 1 8.22-8.19zM636.68 52.08a8.21 8.21 0 1 1 8.2 8.22 8.14 8.14 0 0 1-8.2-8.22zM612.76 60.3a8.21 8.21 0 1 1 8.18-8.25 8.15 8.15 0 0 1-8.18 8.25zM572.36 52.13a8.21 8.21 0 1 1 8.25 8.17 8.14 8.14 0 0 1-8.25-8.17zM548.37 43.88a8.21 8.21 0 1 1-8.17 8.24 8.15 8.15 0 0 1 8.17-8.24zM508 52.05a8.21 8.21 0 1 1 8.17 8.25 8.14 8.14 0 0 1-8.17-8.25zM475.88 52.07a8.21 8.21 0 1 1 8.2 8.23 8.14 8.14 0 0 1-8.2-8.23zM443.72 52.05a8.21 8.21 0 1 1 8.17 8.25 8.14 8.14 0 0 1-8.17-8.25zM411.56 52.14a8.21 8.21 0 1 1 8.26 8.16 8.14 8.14 0 0 1-8.26-8.16zM387.66 43.88A8.21 8.21 0 1 1 379.4 52a8.15 8.15 0 0 1 8.26-8.12zM347.24 52a8.21 8.21 0 1 1 8.16 8.26 8.14 8.14 0 0 1-8.16-8.26zM315.08 52.06a8.21 8.21 0 1 1 8.18 8.24 8.14 8.14 0 0 1-8.18-8.24zM282.92 52.12a8.21 8.21 0 1 1 8.24 8.18 8.14 8.14 0 0 1-8.24-8.18zM250.76 52.08A8.21 8.21 0 1 1 259 60.3a8.14 8.14 0 0 1-8.24-8.22zM226.76 60.3a8.21 8.21 0 1 1 8.24-8.17 8.15 8.15 0 0 1-8.24 8.17zM186.44 52.06a8.21 8.21 0 1 1 8.18 8.24 8.14 8.14 0 0 1-8.18-8.24zM154.28 52.05a8.21 8.21 0 1 1 8.17 8.25 8.14 8.14 0 0 1-8.17-8.25zM130.34 60.3a8.21 8.21 0 1 1 8.2-8.23 8.15 8.15 0 0 1-8.2 8.23zM.14 74.32a9.82 9.82 0 0 1 10 4.28A10.14 10.14 0 0 1 10 90a9.83 9.83 0 0 1-9.86 4.16C0 93.1 0 75.37.14 74.32zM1000 74.32v19.81c-3.39.88-7.54-.79-9.81-3.92a10.16 10.16 0 0 1-.37-11.39 10 10 0 0 1 10.18-4.5zM300.18 36a7 7 0 1 1 7 7 7 7 0 0 1-7-7zM757.56 29a7 7 0 1 1-7.14 6.86 7 7 0 0 1 7.14-6.86zM789.58 43a7 7 0 1 1 7-6.94 7 7 0 0 1-7 6.94zM493.14 36a7 7 0 1 1 6.93 7 7 7 0 0 1-6.93-7zM814.74 36a7 7 0 1 1 7 7 7 7 0 0 1-7-7zM846.9 36.06a7 7 0 1 1 7 7 7 7 0 0 1-7-7zM886.12 43a7 7 0 1 1 7-7 7 7 0 0 1-7 7zM918 43a7 7 0 1 1 7-6.9 7 7 0 0 1-7 6.9zM943.14 36a7 7 0 1 1 7 7 7 7 0 0 1-7-7zM975.3 36a7 7 0 1 1 7 7 7 7 0 0 1-7-7zM686.1 36a7 7 0 1 1 6.9 7 7 7 0 0 1-6.9-7zM718.26 36a7 7 0 1 1 6.91 7 7 7 0 0 1-6.91-7zM17.77 29a7 7 0 1 1-7 7 7 7 0 0 1 7-7zM42.9 36a7 7 0 1 1 7 7 7 7 0 0 1-7-7zM75.06 36A7 7 0 1 1 82 43a7 7 0 0 1-6.94-7zM114.19 43a7 7 0 1 1 7.08-6.91 7 7 0 0 1-7.08 6.91zM146.42 29a7 7 0 1 1-7 7 7 7 0 0 1 7-7zM532.28 43a7 7 0 1 1 7.07-6.92 7 7 0 0 1-7.07 6.92zM171.54 36.05a7 7 0 1 1 7 7 7 7 0 0 1-7-7zM210.75 43a7 7 0 1 1 7-7 7 7 0 0 1-7 7zM242.92 29a7 7 0 1 1-7.06 6.93 7 7 0 0 1 7.06-6.93zM275.1 29a7 7 0 1 1-7.1 6.89 7 7 0 0 1 7.1-6.89zM564.51 43a7 7 0 1 1 7-7 7 7 0 0 1-7 7zM339.28 43a7 7 0 1 1 7.11-6.87 7 7 0 0 1-7.11 6.87zM371.54 43a7 7 0 1 1 7-7 7 7 0 0 1-7 7zM396.66 36.05a7 7 0 1 1 7 7 7 7 0 0 1-7-7zM428.82 36a7 7 0 1 1 7 7 7 7 0 0 1-7-7zM467.9 43a7 7 0 1 1 7.1-6.82 7 7 0 0 1-7.1 6.82zM596.61 43a7 7 0 1 1 7.06-6.92 7 7 0 0 1-7.06 6.92zM621.78 36a7 7 0 1 1 6.94 7 7 7 0 0 1-6.94-7zM660.94 43a7 7 0 1 1 7-6.94 7 7 0 0 1-7 6.94zM.05 60.1V44.16c2.62-.88 6.05.3 8 2.72a8.29 8.29 0 0 1 .69 9.41A8.13 8.13 0 0 1 .05 60.1zM1000 44.1v15.95a7.9 7.9 0 0 1-8.31-3.19 8.26 8.26 0 0 1-.16-9.33 8 8 0 0 1 8.47-3.43zM612.75 25.62a5.7 5.7 0 1 1 5.67-5.62 5.75 5.75 0 0 1-5.67 5.62zM639.19 19.77a5.7 5.7 0 1 1 5.48 5.85 5.75 5.75 0 0 1-5.48-5.85zM677.2 14.23a5.7 5.7 0 1 1-5.85 5.48 5.76 5.76 0 0 1 5.85-5.48zM703.51 20a5.7 5.7 0 1 1 5.68 5.65 5.76 5.76 0 0 1-5.68-5.65zM741.37 25.62a5.7 5.7 0 1 1 5.69-5.62 5.75 5.75 0 0 1-5.69 5.62zM773.47 14.23a5.7 5.7 0 1 1-5.64 5.69 5.75 5.75 0 0 1 5.64-5.69zM800 20a5.7 5.7 0 1 1 5.66 5.67A5.75 5.75 0 0 1 800 20zM832.15 20a5.7 5.7 0 1 1 5.66 5.67 5.75 5.75 0 0 1-5.66-5.67zM864.31 20a5.7 5.7 0 1 1 5.69 5.62 5.75 5.75 0 0 1-5.69-5.62zM902.11 14.23a5.7 5.7 0 1 1-5.64 5.69 5.75 5.75 0 0 1 5.64-5.69zM66 14.23a5.7 5.7 0 1 1-5.68 5.65A5.75 5.75 0 0 1 66 14.23zM966.45 14.23a5.7 5.7 0 1 1-5.66 5.67 5.75 5.75 0 0 1 5.66-5.67zM33.83 14.23a5.7 5.7 0 1 1-5.68 5.65 5.75 5.75 0 0 1 5.68-5.65zM928.63 20a5.7 5.7 0 1 1 5.67 5.66 5.75 5.75 0 0 1-5.67-5.66zM381.91 19.77a5.7 5.7 0 1 1 5.48 5.85 5.75 5.75 0 0 1-5.48-5.85zM580.42 25.62a5.7 5.7 0 1 1 5.84-5.49 5.76 5.76 0 0 1-5.84 5.49zM542.71 20a5.7 5.7 0 1 1 5.68 5.65 5.76 5.76 0 0 1-5.68-5.65zM510.55 20a5.7 5.7 0 1 1 5.67 5.66 5.75 5.75 0 0 1-5.67-5.66zM478.39 20a5.7 5.7 0 1 1 5.66 5.67 5.75 5.75 0 0 1-5.66-5.67zM446.23 19.78a5.7 5.7 0 1 1 5.49 5.84 5.76 5.76 0 0 1-5.49-5.84zM414.07 20a5.7 5.7 0 1 1 5.67 5.66 5.75 5.75 0 0 1-5.67-5.66zM355.44 14.23a5.7 5.7 0 1 1-5.69 5.64 5.75 5.75 0 0 1 5.69-5.64zM317.59 19.78a5.7 5.7 0 1 1 5.49 5.84 5.76 5.76 0 0 1-5.49-5.84zM285.43 20a5.7 5.7 0 1 1 5.66 5.67 5.75 5.75 0 0 1-5.66-5.67zM259 14.23a5.7 5.7 0 1 1-5.69 5.64 5.75 5.75 0 0 1 5.69-5.64zM226.8 14.23a5.7 5.7 0 1 1-5.69 5.64 5.75 5.75 0 0 1 5.69-5.64zM194.62 14.23a5.7 5.7 0 1 1-5.62 5.66 5.75 5.75 0 0 1 5.62-5.66zM162.44 14.23a5.7 5.7 0 1 1-5.65 5.68 5.75 5.75 0 0 1 5.65-5.68zM124.63 20a5.7 5.7 0 1 1 5.68 5.65 5.76 5.76 0 0 1-5.68-5.65zM92.47 19.77A5.7 5.7 0 1 1 98 25.62a5.76 5.76 0 0 1-5.53-5.85zM.07 25.34V14.55a5.54 5.54 0 0 1 6.19 2 5.67 5.67 0 0 1 .16 6.5 5.65 5.65 0 0 1-6.35 2.29zM1000.05 14.47v10.82a5.3 5.3 0 0 1-5.79-1.75 5.67 5.67 0 0 1-.43-6.61 5.58 5.58 0 0 1 6.22-2.46zM628.81 0A3.85 3.85 0 1 1 625 3.78 3.84 3.84 0 0 1 628.81 0zM978.72 3.81a3.85 3.85 0 1 1 3.75 3.88 3.84 3.84 0 0 1-3.75-3.88zM946.56 3.81a3.85 3.85 0 1 1 3.75 3.88 3.84 3.84 0 0 1-3.75-3.88zM918.23 7.69a3.85 3.85 0 1 1 3.86-3.77 3.84 3.84 0 0 1-3.86 3.77zM882.24 3.81A3.85 3.85 0 1 1 886 7.69a3.84 3.84 0 0 1-3.76-3.88zM850.08 3.81a3.85 3.85 0 1 1 3.75 3.88 3.84 3.84 0 0 1-3.75-3.88zM825.61 3.85A3.85 3.85 0 1 1 821.83 0a3.84 3.84 0 0 1 3.78 3.85zM785.76 3.81a3.85 3.85 0 1 1 3.75 3.88 3.84 3.84 0 0 1-3.75-3.88zM753.6 3.81a3.85 3.85 0 1 1 3.75 3.88 3.84 3.84 0 0 1-3.75-3.88zM721.44 3.81a3.85 3.85 0 1 1 3.75 3.88 3.84 3.84 0 0 1-3.75-3.88zM693.09 0a3.85 3.85 0 1 1-3.81 3.82A3.84 3.84 0 0 1 693.09 0zM661 7.69a3.85 3.85 0 1 1 3.85-3.78A3.84 3.84 0 0 1 661 7.69zM596.64 7.69a3.85 3.85 0 1 1 3.85-3.78 3.84 3.84 0 0 1-3.85 3.78zM564.48 0a3.85 3.85 0 1 1-3.84 3.79A3.84 3.84 0 0 1 564.48 0zM528.48 3.86a3.85 3.85 0 1 1 3.8 3.83 3.84 3.84 0 0 1-3.8-3.83zM496.32 3.8a3.85 3.85 0 1 1 3.74 3.89 3.84 3.84 0 0 1-3.74-3.89zM468 0a3.85 3.85 0 1 1-3.8 3.83A3.84 3.84 0 0 1 468 0zM439.69 3.84A3.85 3.85 0 1 1 435.9 0a3.84 3.84 0 0 1 3.79 3.84zM399.84 3.83a3.85 3.85 0 1 1 3.77 3.86 3.84 3.84 0 0 1-3.77-3.86zM367.68 3.85a3.85 3.85 0 1 1 3.79 3.84 3.84 3.84 0 0 1-3.79-3.84zM335.52 3.85a3.85 3.85 0 1 1 3.79 3.84 3.84 3.84 0 0 1-3.79-3.84zM303.36 3.84a3.85 3.85 0 1 1 3.79 3.85 3.84 3.84 0 0 1-3.79-3.85zM271.2 3.84a3.85 3.85 0 1 1 3.8 3.85 3.84 3.84 0 0 1-3.8-3.85zM239 3.8a3.85 3.85 0 1 1 3.74 3.89A3.84 3.84 0 0 1 239 3.8zM210.73 0a3.85 3.85 0 1 1-3.85 3.78A3.84 3.84 0 0 1 210.73 0zM178.59 0a3.85 3.85 0 1 1-3.87 3.76A3.84 3.84 0 0 1 178.59 0zM150.25 3.85A3.85 3.85 0 1 1 146.47 0a3.84 3.84 0 0 1 3.78 3.85zM114.25 7.69a3.85 3.85 0 1 1 3.84-3.79 3.84 3.84 0 0 1-3.84 3.79zM78.24 3.85A3.85 3.85 0 1 1 82 7.69a3.84 3.84 0 0 1-3.76-3.84zM46.08 3.85a3.85 3.85 0 1 1 3.79 3.84 3.84 3.84 0 0 1-3.79-3.84zM17.76 7.69a3.85 3.85 0 1 1 3.85-3.78 3.84 3.84 0 0 1-3.85 3.78z"/>
</svg>