<svg class="tci-uet-shap" xmlns="http://www.w3.org/2000/svg" viewBox="0 0 1000 122.06" preserveAspectRatio="xMidYMin slice">
	<path class="tci-uet-shape-fill" d="M959.06 68.88l-23.18 23.18h-.42l-23.18-23.18-23.18 23.18h-.42L865.5 68.88l-23.18 23.18h-.43l-23.18-23.18-23.18 23.18h-.42l-23.18-23.18-23.18 23.18h-.42l-23.18-23.18-23.18 23.18h-.43l-23.18-23.18-23.18 23.18h-.42l-23.18-23.18-23.18 23.18h-.43l-23.18-23.18-23.17 23.18h-.43l-23.18-23.18-23.18 23.18h-.42l-23.18-23.18-23.18 23.18h-.43l-23.18-23.18-23.18 23.18h-.42l-23.18-23.18-23.18 23.18h-.42l-23.18-23.18-23.18 23.18h-.43l-23.18-23.18-23.18 23.18h-.42l-23.18-23.18-23.18 23.18h-.42l-23.18-23.18-23.18 23.18h-.43l-23.18-23.18-23.18 23.18h-.42l-23.18-23.18-23.18 23.18h-.42L70.17 68.88 47 92.06h-.43L23.39 68.88.21 92.06H0v30h1000v-30h-17.76l-23.18-23.18z"/>
	<path class="tci-uet-shape-fill" d="M964.914 68.656l17.543-17.543L1000 68.656l-17.543 17.543zM918.135 68.654l17.544-17.543 17.543 17.543-17.543 17.544zM871.34 68.66l17.543-17.544 17.543 17.544-17.543 17.543zM824.561 68.658l17.544-17.543 17.543 17.543-17.543 17.544zM777.783 68.647l17.543-17.544 17.543 17.544-17.543 17.543zM730.987 68.652l17.544-17.543 17.543 17.543-17.543 17.544zM684.209 68.65l17.543-17.543 17.543 17.544-17.543 17.543zM637.43 68.65l17.544-17.544 17.543 17.543-17.543 17.543zM590.645 68.655l17.543-17.544 17.543 17.544-17.543 17.543zM543.856 68.653L561.4 51.11l17.543 17.543L561.4 86.196zM497.07 68.659l17.544-17.544 17.543 17.544-17.543 17.543zM450.292 68.657l17.544-17.543 17.543 17.543L467.836 86.2zM403.514 68.656l17.543-17.544 17.544 17.544-17.544 17.543zM356.718 68.661l17.544-17.543 17.543 17.543-17.543 17.543zM309.94 68.66l17.543-17.544 17.544 17.544-17.544 17.543zM263.162 68.648l17.543-17.543 17.543 17.543-17.543 17.543zM216.376 68.654l17.543-17.544 17.544 17.544-17.544 17.543zM169.588 68.652l17.543-17.543 17.543 17.543-17.543 17.543zM122.81 68.65l17.542-17.543 17.544 17.543-17.544 17.544zM76.024 68.656l17.543-17.543 17.543 17.543-17.543 17.543zM29.245 68.654l17.543-17.543 17.544 17.543-17.544 17.544zM944.445 49.938l14.623-14.623 14.623 14.623-14.623 14.623zM897.66 49.944l14.622-14.623 14.623 14.623-14.623 14.623zM850.87 49.942l14.624-14.623 14.623 14.623-14.623 14.623zM804.092 49.94l14.623-14.623 14.623 14.623-14.623 14.623zM757.307 49.936l14.623-14.623 14.623 14.623-14.623 14.623zM710.528 49.934l14.623-14.623 14.623 14.623-14.623 14.623zM663.733 49.94l14.623-14.623 14.623 14.623-14.623 14.623zM616.954 49.938l14.623-14.623L646.2 49.938l-14.623 14.623zM570.176 49.937l14.623-14.623 14.623 14.623-14.623 14.623zM523.39 49.942l14.623-14.623 14.623 14.623-14.623 14.623zM476.602 49.94l14.623-14.622 14.623 14.623-14.623 14.623zM429.824 49.94l14.623-14.624 14.622 14.623-14.622 14.623zM383.038 49.945l14.623-14.623 14.623 14.623-14.623 14.623zM336.26 49.943l14.623-14.623 14.623 14.623-14.623 14.623zM289.471 49.932l14.623-14.623 14.623 14.623-14.623 14.623zM242.686 49.937l14.623-14.623 14.623 14.623-14.623 14.623zM195.907 49.936l14.623-14.623 14.623 14.623-14.623 14.623zM149.122 49.941l14.623-14.623 14.623 14.623-14.623 14.623zM102.333 49.94l14.623-14.623L131.58 49.94l-14.623 14.623zM55.555 49.938l14.623-14.623L84.8 49.938 70.178 64.561zM8.77 49.944L23.391 35.32l14.623 14.623-14.623 14.623zM970.77 35.908l11.696-11.695 11.696 11.695-11.696 11.696zM923.975 35.914l11.696-11.696 11.695 11.696-11.695 11.695zM877.197 35.902l11.695-11.695 11.696 11.695-11.696 11.696zM830.418 35.9l11.696-11.695 11.695 11.696-11.695 11.695zM783.623 35.906l11.695-11.696 11.696 11.696-11.696 11.696zM736.844 35.904L748.54 24.21l11.695 11.695L748.54 47.6zM690.059 35.91l11.695-11.696L713.45 35.91l-11.696 11.696zM643.28 35.908l11.696-11.695 11.695 11.695-11.695 11.696zM596.492 35.907l11.695-11.696 11.696 11.696-11.696 11.695zM549.706 35.912l11.696-11.695 11.695 11.695-11.695 11.696zM502.928 35.91l11.695-11.695 11.696 11.696-11.696 11.695zM456.15 35.91l11.695-11.696 11.696 11.695-11.696 11.696zM409.354 35.915l11.696-11.696 11.695 11.696L421.05 47.61zM362.576 35.903l11.695-11.695 11.696 11.695L374.27 47.6zM315.797 35.902l11.696-11.696 11.695 11.696-11.695 11.695zM269.012 35.907l11.695-11.695 11.696 11.695-11.696 11.696zM222.223 35.906L233.92 24.21l11.695 11.696L233.92 47.6zM175.438 35.911l11.695-11.695L198.83 35.91l-11.696 11.696zM128.66 35.91l11.695-11.696L152.05 35.91l-11.695 11.695zM81.88 35.908l11.696-11.695 11.696 11.695-11.696 11.696zM35.085 35.914l11.696-11.696 11.695 11.696-11.695 11.695zM950.294 21.877l8.775-8.776 8.776 8.776-8.776 8.775zM903.516 21.875l8.775-8.775 8.775 8.775-8.775 8.775zM856.72 21.87l8.775-8.775 8.776 8.776-8.776 8.775zM809.942 21.869l8.775-8.775 8.775 8.775-8.775 8.775zM763.163 21.867l8.775-8.775 8.776 8.775-8.776 8.776zM716.378 21.873l8.775-8.775 8.775 8.775-8.775 8.775zM669.59 21.871l8.774-8.775 8.776 8.775-8.776 8.776zM622.81 21.87l8.776-8.775 8.775 8.775-8.775 8.775zM576.025 21.875L584.8 13.1l8.776 8.775-8.776 8.776zM529.237 21.874l8.775-8.775 8.775 8.775-8.775 8.775zM482.458 21.872l8.776-8.775 8.775 8.775-8.775 8.776zM435.673 21.878l8.775-8.775 8.775 8.775-8.775 8.775zM388.894 21.866l8.776-8.775 8.775 8.775-8.775 8.776zM342.099 21.872l8.775-8.775 8.775 8.775-8.775 8.775zM295.32 21.87l8.776-8.775 8.775 8.775-8.775 8.776zM248.542 21.869l8.775-8.775 8.775 8.775-8.775 8.775zM201.756 21.874l8.776-8.775 8.775 8.775-8.775 8.776zM154.968 21.873l8.775-8.775 8.775 8.775-8.775 8.775zM108.19 21.871l8.775-8.775 8.775 8.775-8.775 8.775zM61.404 21.877l8.775-8.775 8.775 8.775-8.775 8.775zM14.626 21.875L23.4 13.1l8.775 8.775L23.4 30.65zM976.61 12.286l5.847-5.848 5.848 5.848-5.848 5.848zM929.831 12.285l5.848-5.848 5.848 5.848-5.848 5.847zM883.036 12.28l5.847-5.848 5.848 5.848-5.848 5.848zM836.257 12.279l5.848-5.848 5.848 5.848-5.848 5.847zM789.479 12.277l5.848-5.848 5.847 5.848-5.847 5.848zM742.693 12.283l5.848-5.848 5.848 5.848-5.848 5.847zM695.915 12.281l5.848-5.848 5.847 5.848-5.847 5.848zM649.126 12.28l5.848-5.848 5.848 5.848-5.848 5.847zM602.34 12.285l5.849-5.848 5.847 5.848-5.847 5.848zM555.562 12.284l5.848-5.848 5.848 5.848-5.848 5.847zM508.767 12.29l5.848-5.849 5.847 5.848-5.847 5.848zM461.988 12.288l5.848-5.848 5.848 5.848-5.848 5.847zM415.21 12.276l5.848-5.848 5.847 5.848-5.847 5.848zM368.424 12.291l5.848-5.847 5.848 5.847-5.848 5.848zM321.636 12.28l5.848-5.848 5.847 5.848-5.847 5.848zM274.857 12.278l5.848-5.847 5.848 5.847-5.848 5.848zM228.072 12.284l5.848-5.848 5.847 5.848-5.847 5.848zM181.293 12.282l5.848-5.847 5.848 5.847-5.848 5.848zM134.505 12.28l5.848-5.847 5.848 5.848-5.848 5.848zM87.72 12.286l5.847-5.847 5.848 5.847-5.848 5.848zM40.941 12.285l5.848-5.848 5.848 5.848-5.848 5.848zM956.15 2.927L959.076 0l2.927 2.927-2.927 2.927zM909.354 2.932L912.28.005l2.928 2.927-2.928 2.928zM862.585 2.93l2.928-2.927 2.927 2.928-2.927 2.927zM815.797 2.93l2.927-2.928 2.928 2.927-2.928 2.928zM769.011 2.935L771.94.007l2.927 2.928-2.927 2.927zM722.233 2.933L725.16.006l2.928 2.927-2.928 2.928zM675.447 2.939L678.375.01l2.927 2.928-2.927 2.927zM628.659 2.927L631.586 0l2.928 2.927-2.928 2.928zM581.88 2.926l2.928-2.928 2.927 2.928-2.927 2.927zM535.085 2.931l2.927-2.927 2.928 2.927-2.928 2.928zM488.306 2.93l2.928-2.928 2.927 2.928-2.927 2.927zM441.528 2.928l2.927-2.927 2.928 2.927-2.928 2.928zM394.742 2.934L397.67.006l2.927 2.928-2.927 2.927zM347.954 2.932l2.927-2.927 2.928 2.927-2.928 2.928zM301.176 2.93l2.927-2.927 2.927 2.928-2.927 2.927zM254.39 2.926L257.317 0l2.928 2.927-2.928 2.928zM207.612 2.925l2.927-2.928 2.927 2.928-2.927 2.927zM160.823 2.923l2.928-2.927 2.927 2.927-2.927 2.928zM114.038 2.929L116.965 0l2.927 2.928-2.927 2.927zM67.26 2.927L70.186 0l2.927 2.927-2.927 2.927zM20.464 2.933L23.39.005l2.927 2.928-2.927 2.927z"/>
</svg>